<mxfile host="Electron" agent="Mozilla/5.0 (Windows NT 10.0; Win64; x64) AppleWebKit/537.36 (KHTML, like Gecko) draw.io/26.0.9 Chrome/128.0.6613.186 Electron/32.2.5 Safari/537.36" version="26.0.9" pages="6">
  <diagram name="ip header" id="0qf0DlyqlvWk5pcOUlD8">
    <mxGraphModel dx="1194" dy="557" grid="1" gridSize="10" guides="1" tooltips="1" connect="1" arrows="1" fold="1" page="0" pageScale="1" pageWidth="850" pageHeight="1100" math="0" shadow="0">
      <root>
        <mxCell id="0" />
        <mxCell id="1" parent="0" />
        <mxCell id="KQzyhgybYL7EZxoWA8rE-85" value="" style="rounded=0;whiteSpace=wrap;html=1;fillColor=#d5e8d4;strokeColor=#82b366;" parent="1" vertex="1">
          <mxGeometry x="70" y="627" width="616" height="40" as="geometry" />
        </mxCell>
        <mxCell id="KQzyhgybYL7EZxoWA8rE-56" value="" style="rounded=0;whiteSpace=wrap;html=1;fillColor=#d5e8d4;strokeColor=#82b366;" parent="1" vertex="1">
          <mxGeometry x="70" y="460" width="616" height="40" as="geometry" />
        </mxCell>
        <mxCell id="KQzyhgybYL7EZxoWA8rE-1" value="" style="rounded=0;whiteSpace=wrap;html=1;points=[[0,0,0,0,0],[0,0.25,0,0,0],[0,0.5,0,0,0],[0,0.75,0,0,0],[0,1,0,0,0],[0.16,0,0,0,0],[0.16,1,0,0,0],[0.25,0,0,0,0],[0.25,1,0,0,0],[0.5,0,0,0,0],[0.5,1,0,0,0],[0.75,0,0,0,0],[0.75,1,0,0,0],[0.9,0,0,0,0],[0.9,1,0,0,0],[1,0,0,0,0],[1,0.25,0,0,0],[1,0.5,0,0,0],[1,0.75,0,0,0],[1,1,0,0,0]];" parent="1" vertex="1">
          <mxGeometry x="40" y="360" width="580" height="40" as="geometry" />
        </mxCell>
        <mxCell id="KQzyhgybYL7EZxoWA8rE-4" value="MAC头" style="text;html=1;align=center;verticalAlign=middle;whiteSpace=wrap;rounded=0;" parent="1" vertex="1">
          <mxGeometry x="60" y="364" width="60" height="30" as="geometry" />
        </mxCell>
        <mxCell id="KQzyhgybYL7EZxoWA8rE-7" value="" style="endArrow=none;html=1;rounded=0;entryX=0.9;entryY=0;entryDx=0;entryDy=0;entryPerimeter=0;exitX=0.9;exitY=1;exitDx=0;exitDy=0;exitPerimeter=0;" parent="1" source="KQzyhgybYL7EZxoWA8rE-1" target="KQzyhgybYL7EZxoWA8rE-1" edge="1">
          <mxGeometry width="50" height="50" relative="1" as="geometry">
            <mxPoint x="340" y="520" as="sourcePoint" />
            <mxPoint x="390" y="470" as="targetPoint" />
          </mxGeometry>
        </mxCell>
        <mxCell id="KQzyhgybYL7EZxoWA8rE-8" value="CRC" style="text;html=1;align=center;verticalAlign=middle;whiteSpace=wrap;rounded=0;" parent="1" vertex="1">
          <mxGeometry x="566" y="364" width="60" height="30" as="geometry" />
        </mxCell>
        <mxCell id="KQzyhgybYL7EZxoWA8rE-9" value="" style="endArrow=none;html=1;rounded=0;entryX=0.16;entryY=0;entryDx=0;entryDy=0;entryPerimeter=0;exitX=0.16;exitY=1;exitDx=0;exitDy=0;exitPerimeter=0;" parent="1" source="KQzyhgybYL7EZxoWA8rE-1" target="KQzyhgybYL7EZxoWA8rE-1" edge="1">
          <mxGeometry width="50" height="50" relative="1" as="geometry">
            <mxPoint x="370" y="520" as="sourcePoint" />
            <mxPoint x="420" y="470" as="targetPoint" />
          </mxGeometry>
        </mxCell>
        <mxCell id="KQzyhgybYL7EZxoWA8rE-10" value="数据" style="rounded=0;whiteSpace=wrap;html=1;fillColor=#d5e8d4;strokeColor=#82b366;" parent="1" vertex="1">
          <mxGeometry x="130" y="360" width="440" height="40" as="geometry" />
        </mxCell>
        <mxCell id="KQzyhgybYL7EZxoWA8rE-11" value="" style="rounded=0;whiteSpace=wrap;html=1;points=[[0,0,0,0,0],[0,0.25,0,0,0],[0,0.5,0,0,0],[0,0.75,0,0,0],[0,1,0,0,0],[0.05,0,0,0,0],[0.05,1,0,0,0],[0.1,0,0,0,0],[0.1,1,0,0,0],[0.14,0,0,0,0],[0.14,1,0,0,0],[0.19,0,0,0,0],[0.19,1,0,0,0],[0.24,0,0,0,0],[0.24,1,0,0,0],[0.25,0,0,0,0],[0.25,1,0,0,0],[0.29,0,0,0,0],[0.29,1,0,0,0],[0.33,0,0,0,0],[0.33,1,0,0,0],[0.38,0,0,0,0],[0.38,1,0,0,0],[0.43,0,0,0,0],[0.43,1,0,0,0],[0.48,0,0,0,0],[0.48,1,0,0,0],[0.5,0,0,0,0],[0.5,1,0,0,0],[0.52,0,0,0,0],[0.52,1,0,0,0],[0.57,0,0,0,0],[0.57,1,0,0,0],[0.62,0,0,0,0],[0.62,1,0,0,0],[0.67,0,0,0,0],[0.67,1,0,0,0],[0.71,0,0,0,0],[0.71,1,0,0,0],[0.75,0,0,0,0],[0.75,1,0,0,0],[0.76,0,0,0,0],[0.76,1,0,0,0],[0.81,0,0,0,0],[0.81,1,0,0,0],[0.86,0,0,0,0],[0.86,1,0,0,0],[0.9,0,0,0,0],[0.9,1,0,0,0],[0.95,0,0,0,0],[0.95,1,0,0,0],[1,0,0,0,0],[1,0.25,0,0,0],[1,0.5,0,0,0],[1,0.75,0,0,0],[1,1,0,0,0]];fillColor=none;" parent="1" vertex="1">
          <mxGeometry x="70" y="460" width="810" height="40" as="geometry" />
        </mxCell>
        <mxCell id="KQzyhgybYL7EZxoWA8rE-12" value="" style="endArrow=none;html=1;rounded=0;entryX=0.05;entryY=0;entryDx=0;entryDy=0;entryPerimeter=0;exitX=0.05;exitY=1;exitDx=0;exitDy=0;exitPerimeter=0;" parent="1" source="KQzyhgybYL7EZxoWA8rE-11" target="KQzyhgybYL7EZxoWA8rE-11" edge="1">
          <mxGeometry width="50" height="50" relative="1" as="geometry">
            <mxPoint x="310" y="550" as="sourcePoint" />
            <mxPoint x="360" y="500" as="targetPoint" />
          </mxGeometry>
        </mxCell>
        <mxCell id="KQzyhgybYL7EZxoWA8rE-13" value="版本&lt;div&gt;4 - IPv4&lt;/div&gt;&lt;div&gt;6-IPv6&lt;/div&gt;" style="text;html=1;align=center;verticalAlign=middle;whiteSpace=wrap;rounded=0;" parent="1" vertex="1">
          <mxGeometry x="60" y="510" width="60" height="30" as="geometry" />
        </mxCell>
        <mxCell id="KQzyhgybYL7EZxoWA8rE-14" value="4bits" style="text;html=1;align=center;verticalAlign=middle;whiteSpace=wrap;rounded=0;" parent="1" vertex="1">
          <mxGeometry x="75" y="465" width="30" height="30" as="geometry" />
        </mxCell>
        <mxCell id="KQzyhgybYL7EZxoWA8rE-15" style="edgeStyle=none;rounded=0;orthogonalLoop=1;jettySize=auto;html=1;exitX=0;exitY=1;exitDx=0;exitDy=0;entryX=0;entryY=0;entryDx=0;entryDy=0;entryPerimeter=0;" parent="1" source="KQzyhgybYL7EZxoWA8rE-10" target="KQzyhgybYL7EZxoWA8rE-11" edge="1">
          <mxGeometry relative="1" as="geometry" />
        </mxCell>
        <mxCell id="KQzyhgybYL7EZxoWA8rE-16" style="edgeStyle=none;rounded=0;orthogonalLoop=1;jettySize=auto;html=1;exitX=1;exitY=1;exitDx=0;exitDy=0;entryX=1;entryY=0;entryDx=0;entryDy=0;entryPerimeter=0;" parent="1" source="KQzyhgybYL7EZxoWA8rE-10" target="KQzyhgybYL7EZxoWA8rE-11" edge="1">
          <mxGeometry relative="1" as="geometry" />
        </mxCell>
        <mxCell id="KQzyhgybYL7EZxoWA8rE-17" value="首部&lt;div&gt;位置&lt;/div&gt;" style="text;html=1;align=center;verticalAlign=middle;whiteSpace=wrap;rounded=0;" parent="1" vertex="1">
          <mxGeometry x="110" y="424" width="40" height="30" as="geometry" />
        </mxCell>
        <mxCell id="KQzyhgybYL7EZxoWA8rE-18" value="4bits" style="text;html=1;align=center;verticalAlign=middle;whiteSpace=wrap;rounded=0;" parent="1" vertex="1">
          <mxGeometry x="115" y="466" width="30" height="30" as="geometry" />
        </mxCell>
        <mxCell id="KQzyhgybYL7EZxoWA8rE-19" value="" style="endArrow=none;html=1;rounded=0;entryX=0.1;entryY=0;entryDx=0;entryDy=0;entryPerimeter=0;exitX=0.1;exitY=1;exitDx=0;exitDy=0;exitPerimeter=0;" parent="1" source="KQzyhgybYL7EZxoWA8rE-11" target="KQzyhgybYL7EZxoWA8rE-11" edge="1">
          <mxGeometry width="50" height="50" relative="1" as="geometry">
            <mxPoint x="350" y="510" as="sourcePoint" />
            <mxPoint x="400" y="460" as="targetPoint" />
          </mxGeometry>
        </mxCell>
        <mxCell id="KQzyhgybYL7EZxoWA8rE-20" value="8bits" style="text;html=1;align=center;verticalAlign=middle;whiteSpace=wrap;rounded=0;" parent="1" vertex="1">
          <mxGeometry x="152" y="466" width="30" height="30" as="geometry" />
        </mxCell>
        <mxCell id="KQzyhgybYL7EZxoWA8rE-21" value="服务&lt;div&gt;类型TOS&lt;/div&gt;" style="text;html=1;align=center;verticalAlign=middle;whiteSpace=wrap;rounded=0;" parent="1" vertex="1">
          <mxGeometry x="141" y="510" width="53" height="30" as="geometry" />
        </mxCell>
        <mxCell id="KQzyhgybYL7EZxoWA8rE-23" value="" style="endArrow=none;html=1;rounded=0;entryX=0.14;entryY=0;entryDx=0;entryDy=0;entryPerimeter=0;exitX=0.14;exitY=1;exitDx=0;exitDy=0;exitPerimeter=0;" parent="1" source="KQzyhgybYL7EZxoWA8rE-11" target="KQzyhgybYL7EZxoWA8rE-11" edge="1">
          <mxGeometry width="50" height="50" relative="1" as="geometry">
            <mxPoint x="350" y="510" as="sourcePoint" />
            <mxPoint x="400" y="460" as="targetPoint" />
          </mxGeometry>
        </mxCell>
        <mxCell id="KQzyhgybYL7EZxoWA8rE-24" value="" style="endArrow=none;html=1;rounded=0;entryX=0.19;entryY=0;entryDx=0;entryDy=0;entryPerimeter=0;exitX=0.19;exitY=1;exitDx=0;exitDy=0;exitPerimeter=0;" parent="1" source="KQzyhgybYL7EZxoWA8rE-11" target="KQzyhgybYL7EZxoWA8rE-11" edge="1">
          <mxGeometry width="50" height="50" relative="1" as="geometry">
            <mxPoint x="240" y="610" as="sourcePoint" />
            <mxPoint x="290" y="560" as="targetPoint" />
          </mxGeometry>
        </mxCell>
        <mxCell id="KQzyhgybYL7EZxoWA8rE-25" value="16bits" style="text;html=1;align=center;verticalAlign=middle;whiteSpace=wrap;rounded=0;" parent="1" vertex="1">
          <mxGeometry x="183" y="466" width="40" height="30" as="geometry" />
        </mxCell>
        <mxCell id="KQzyhgybYL7EZxoWA8rE-26" value="&lt;div&gt;IP消息&lt;/div&gt;总长度" style="text;html=1;align=center;verticalAlign=middle;whiteSpace=wrap;rounded=0;" parent="1" vertex="1">
          <mxGeometry x="182" y="420" width="48" height="30" as="geometry" />
        </mxCell>
        <mxCell id="KQzyhgybYL7EZxoWA8rE-27" value="16bits" style="text;html=1;align=center;verticalAlign=middle;whiteSpace=wrap;rounded=0;" parent="1" vertex="1">
          <mxGeometry x="228" y="466" width="40" height="30" as="geometry" />
        </mxCell>
        <mxCell id="KQzyhgybYL7EZxoWA8rE-28" value="" style="endArrow=none;html=1;rounded=0;entryX=0.25;entryY=0;entryDx=0;entryDy=0;entryPerimeter=0;exitX=0.25;exitY=1;exitDx=0;exitDy=0;exitPerimeter=0;" parent="1" source="KQzyhgybYL7EZxoWA8rE-11" target="KQzyhgybYL7EZxoWA8rE-11" edge="1">
          <mxGeometry width="50" height="50" relative="1" as="geometry">
            <mxPoint x="350" y="510" as="sourcePoint" />
            <mxPoint x="400" y="460" as="targetPoint" />
          </mxGeometry>
        </mxCell>
        <mxCell id="KQzyhgybYL7EZxoWA8rE-29" value="ID号&lt;div&gt;(多个IP分片包具有相同的ID)&lt;/div&gt;" style="text;html=1;align=center;verticalAlign=middle;whiteSpace=wrap;rounded=0;" parent="1" vertex="1">
          <mxGeometry x="198.5" y="510" width="93" height="30" as="geometry" />
        </mxCell>
        <mxCell id="KQzyhgybYL7EZxoWA8rE-30" value="" style="endArrow=none;html=1;rounded=0;entryX=0.29;entryY=0;entryDx=0;entryDy=0;entryPerimeter=0;exitX=0.29;exitY=1;exitDx=0;exitDy=0;exitPerimeter=0;" parent="1" source="KQzyhgybYL7EZxoWA8rE-11" target="KQzyhgybYL7EZxoWA8rE-11" edge="1">
          <mxGeometry width="50" height="50" relative="1" as="geometry">
            <mxPoint x="350" y="510" as="sourcePoint" />
            <mxPoint x="400" y="460" as="targetPoint" />
          </mxGeometry>
        </mxCell>
        <mxCell id="KQzyhgybYL7EZxoWA8rE-31" value="3bits" style="text;html=1;align=center;verticalAlign=middle;whiteSpace=wrap;rounded=0;" parent="1" vertex="1">
          <mxGeometry x="274" y="466" width="30" height="30" as="geometry" />
        </mxCell>
        <mxCell id="KQzyhgybYL7EZxoWA8rE-32" value="标志&lt;div&gt;(是否为分片包等)&lt;/div&gt;" style="text;html=1;align=center;verticalAlign=middle;whiteSpace=wrap;rounded=0;" parent="1" vertex="1">
          <mxGeometry x="238" y="424" width="102" height="30" as="geometry" />
        </mxCell>
        <mxCell id="KQzyhgybYL7EZxoWA8rE-33" value="" style="endArrow=none;html=1;rounded=0;entryX=0.33;entryY=0;entryDx=0;entryDy=0;entryPerimeter=0;exitX=0.33;exitY=1;exitDx=0;exitDy=0;exitPerimeter=0;" parent="1" source="KQzyhgybYL7EZxoWA8rE-11" target="KQzyhgybYL7EZxoWA8rE-11" edge="1">
          <mxGeometry width="50" height="50" relative="1" as="geometry">
            <mxPoint x="350" y="510" as="sourcePoint" />
            <mxPoint x="400" y="460" as="targetPoint" />
          </mxGeometry>
        </mxCell>
        <mxCell id="KQzyhgybYL7EZxoWA8rE-34" value="13&lt;span style=&quot;background-color: transparent; color: light-dark(rgb(0, 0, 0), rgb(255, 255, 255));&quot;&gt;bits&lt;/span&gt;" style="text;html=1;align=center;verticalAlign=middle;whiteSpace=wrap;rounded=0;" parent="1" vertex="1">
          <mxGeometry x="301" y="467" width="40" height="30" as="geometry" />
        </mxCell>
        <mxCell id="KQzyhgybYL7EZxoWA8rE-35" value="分片偏移量&lt;div&gt;(该分片位于整个包的位置)&lt;/div&gt;" style="text;html=1;align=center;verticalAlign=middle;whiteSpace=wrap;rounded=0;" parent="1" vertex="1">
          <mxGeometry x="290.5" y="518" width="65" height="30" as="geometry" />
        </mxCell>
        <mxCell id="KQzyhgybYL7EZxoWA8rE-37" value="" style="endArrow=none;html=1;rounded=0;entryX=0.38;entryY=0;entryDx=0;entryDy=0;entryPerimeter=0;exitX=0.38;exitY=1;exitDx=0;exitDy=0;exitPerimeter=0;" parent="1" source="KQzyhgybYL7EZxoWA8rE-11" target="KQzyhgybYL7EZxoWA8rE-11" edge="1">
          <mxGeometry width="50" height="50" relative="1" as="geometry">
            <mxPoint x="350" y="510" as="sourcePoint" />
            <mxPoint x="400" y="460" as="targetPoint" />
          </mxGeometry>
        </mxCell>
        <mxCell id="KQzyhgybYL7EZxoWA8rE-38" value="TTL" style="text;html=1;align=center;verticalAlign=middle;whiteSpace=wrap;rounded=0;" parent="1" vertex="1">
          <mxGeometry x="340" y="424" width="40" height="30" as="geometry" />
        </mxCell>
        <mxCell id="KQzyhgybYL7EZxoWA8rE-39" value="8bits" style="text;html=1;align=center;verticalAlign=middle;whiteSpace=wrap;rounded=0;" parent="1" vertex="1">
          <mxGeometry x="342" y="467" width="30" height="30" as="geometry" />
        </mxCell>
        <mxCell id="KQzyhgybYL7EZxoWA8rE-40" value="" style="endArrow=none;html=1;rounded=0;entryX=0.43;entryY=0;entryDx=0;entryDy=0;entryPerimeter=0;exitX=0.43;exitY=1;exitDx=0;exitDy=0;exitPerimeter=0;" parent="1" source="KQzyhgybYL7EZxoWA8rE-11" target="KQzyhgybYL7EZxoWA8rE-11" edge="1">
          <mxGeometry width="50" height="50" relative="1" as="geometry">
            <mxPoint x="350" y="510" as="sourcePoint" />
            <mxPoint x="400" y="460" as="targetPoint" />
          </mxGeometry>
        </mxCell>
        <mxCell id="KQzyhgybYL7EZxoWA8rE-41" value="8bits" style="text;html=1;align=center;verticalAlign=middle;whiteSpace=wrap;rounded=0;" parent="1" vertex="1">
          <mxGeometry x="383" y="468" width="30" height="30" as="geometry" />
        </mxCell>
        <mxCell id="KQzyhgybYL7EZxoWA8rE-42" value="协议号&lt;div&gt;TCP:06&lt;/div&gt;&lt;div&gt;UDP:17&lt;/div&gt;&lt;div&gt;ICMP:01&lt;/div&gt;&lt;div&gt;...&lt;/div&gt;" style="text;html=1;align=center;verticalAlign=middle;whiteSpace=wrap;rounded=0;" parent="1" vertex="1">
          <mxGeometry x="371" y="526" width="60" height="30" as="geometry" />
        </mxCell>
        <mxCell id="KQzyhgybYL7EZxoWA8rE-43" value="" style="endArrow=none;html=1;rounded=0;entryX=0.48;entryY=0;entryDx=0;entryDy=0;entryPerimeter=0;exitX=0.48;exitY=1;exitDx=0;exitDy=0;exitPerimeter=0;" parent="1" source="KQzyhgybYL7EZxoWA8rE-11" target="KQzyhgybYL7EZxoWA8rE-11" edge="1">
          <mxGeometry width="50" height="50" relative="1" as="geometry">
            <mxPoint x="450" y="510" as="sourcePoint" />
            <mxPoint x="500" y="460" as="targetPoint" />
          </mxGeometry>
        </mxCell>
        <mxCell id="KQzyhgybYL7EZxoWA8rE-44" value="16bits" style="text;html=1;align=center;verticalAlign=middle;whiteSpace=wrap;rounded=0;" parent="1" vertex="1">
          <mxGeometry x="419" y="466" width="40" height="30" as="geometry" />
        </mxCell>
        <mxCell id="KQzyhgybYL7EZxoWA8rE-45" value="首部校验和&lt;div&gt;(已废弃)&lt;/div&gt;" style="text;html=1;align=center;verticalAlign=middle;whiteSpace=wrap;rounded=0;" parent="1" vertex="1">
          <mxGeometry x="406" y="420" width="71" height="30" as="geometry" />
        </mxCell>
        <mxCell id="KQzyhgybYL7EZxoWA8rE-46" value="" style="endArrow=none;html=1;rounded=0;entryX=0.57;entryY=0;entryDx=0;entryDy=0;entryPerimeter=0;exitX=0.57;exitY=1;exitDx=0;exitDy=0;exitPerimeter=0;" parent="1" source="KQzyhgybYL7EZxoWA8rE-11" target="KQzyhgybYL7EZxoWA8rE-11" edge="1">
          <mxGeometry width="50" height="50" relative="1" as="geometry">
            <mxPoint x="500" y="530" as="sourcePoint" />
            <mxPoint x="550" y="480" as="targetPoint" />
          </mxGeometry>
        </mxCell>
        <mxCell id="KQzyhgybYL7EZxoWA8rE-47" value="" style="endArrow=none;html=1;rounded=0;entryX=0.67;entryY=0;entryDx=0;entryDy=0;entryPerimeter=0;exitX=0.67;exitY=1;exitDx=0;exitDy=0;exitPerimeter=0;" parent="1" source="KQzyhgybYL7EZxoWA8rE-11" target="KQzyhgybYL7EZxoWA8rE-11" edge="1">
          <mxGeometry width="50" height="50" relative="1" as="geometry">
            <mxPoint x="500" y="530" as="sourcePoint" />
            <mxPoint x="550" y="480" as="targetPoint" />
          </mxGeometry>
        </mxCell>
        <mxCell id="KQzyhgybYL7EZxoWA8rE-48" value="32bits" style="text;html=1;align=center;verticalAlign=middle;whiteSpace=wrap;rounded=0;" parent="1" vertex="1">
          <mxGeometry x="477" y="467" width="40" height="30" as="geometry" />
        </mxCell>
        <mxCell id="KQzyhgybYL7EZxoWA8rE-49" value="32bits" style="text;html=1;align=center;verticalAlign=middle;whiteSpace=wrap;rounded=0;" parent="1" vertex="1">
          <mxGeometry x="551" y="467" width="40" height="30" as="geometry" />
        </mxCell>
        <mxCell id="KQzyhgybYL7EZxoWA8rE-50" value="源IP" style="text;html=1;align=center;verticalAlign=middle;whiteSpace=wrap;rounded=0;" parent="1" vertex="1">
          <mxGeometry x="467" y="507" width="60" height="30" as="geometry" />
        </mxCell>
        <mxCell id="KQzyhgybYL7EZxoWA8rE-51" value="目的IP" style="text;html=1;align=center;verticalAlign=middle;whiteSpace=wrap;rounded=0;" parent="1" vertex="1">
          <mxGeometry x="541" y="507" width="60" height="30" as="geometry" />
        </mxCell>
        <mxCell id="KQzyhgybYL7EZxoWA8rE-52" value="" style="endArrow=none;html=1;rounded=0;entryX=0.76;entryY=0;entryDx=0;entryDy=0;entryPerimeter=0;exitX=0.76;exitY=1;exitDx=0;exitDy=0;exitPerimeter=0;" parent="1" source="KQzyhgybYL7EZxoWA8rE-11" target="KQzyhgybYL7EZxoWA8rE-11" edge="1">
          <mxGeometry width="50" height="50" relative="1" as="geometry">
            <mxPoint x="500" y="530" as="sourcePoint" />
            <mxPoint x="550" y="480" as="targetPoint" />
          </mxGeometry>
        </mxCell>
        <mxCell id="KQzyhgybYL7EZxoWA8rE-53" value="可变" style="text;html=1;align=center;verticalAlign=middle;whiteSpace=wrap;rounded=0;" parent="1" vertex="1">
          <mxGeometry x="615" y="467" width="60" height="30" as="geometry" />
        </mxCell>
        <mxCell id="KQzyhgybYL7EZxoWA8rE-54" value="选项" style="text;html=1;align=center;verticalAlign=middle;whiteSpace=wrap;rounded=0;" parent="1" vertex="1">
          <mxGeometry x="620" y="507" width="50" height="30" as="geometry" />
        </mxCell>
        <mxCell id="KQzyhgybYL7EZxoWA8rE-55" value="数据" style="text;html=1;align=center;verticalAlign=middle;whiteSpace=wrap;rounded=0;" parent="1" vertex="1">
          <mxGeometry x="743" y="466" width="60" height="30" as="geometry" />
        </mxCell>
        <mxCell id="KQzyhgybYL7EZxoWA8rE-57" value="" style="rounded=0;whiteSpace=wrap;html=1;points=[[0,0,0,0,0],[0,0.25,0,0,0],[0,0.5,0,0,0],[0,0.75,0,0,0],[0,1,0,0,0],[0.05,0,0,0,0],[0.05,1,0,0,0],[0.1,0,0,0,0],[0.1,1,0,0,0],[0.14,0,0,0,0],[0.14,1,0,0,0],[0.19,0,0,0,0],[0.19,1,0,0,0],[0.24,0,0,0,0],[0.24,1,0,0,0],[0.25,0,0,0,0],[0.25,1,0,0,0],[0.29,0,0,0,0],[0.29,1,0,0,0],[0.33,0,0,0,0],[0.33,1,0,0,0],[0.38,0,0,0,0],[0.38,1,0,0,0],[0.43,0,0,0,0],[0.43,1,0,0,0],[0.48,0,0,0,0],[0.48,1,0,0,0],[0.5,0,0,0,0],[0.5,1,0,0,0],[0.52,0,0,0,0],[0.52,1,0,0,0],[0.57,0,0,0,0],[0.57,1,0,0,0],[0.62,0,0,0,0],[0.62,1,0,0,0],[0.67,0,0,0,0],[0.67,1,0,0,0],[0.71,0,0,0,0],[0.71,1,0,0,0],[0.75,0,0,0,0],[0.75,1,0,0,0],[0.76,0,0,0,0],[0.76,1,0,0,0],[0.81,0,0,0,0],[0.81,1,0,0,0],[0.86,0,0,0,0],[0.86,1,0,0,0],[0.9,0,0,0,0],[0.9,1,0,0,0],[0.95,0,0,0,0],[0.95,1,0,0,0],[1,0,0,0,0],[1,0.25,0,0,0],[1,0.5,0,0,0],[1,0.75,0,0,0],[1,1,0,0,0]];fillColor=none;" parent="1" vertex="1">
          <mxGeometry x="70" y="627" width="810" height="40" as="geometry" />
        </mxCell>
        <mxCell id="KQzyhgybYL7EZxoWA8rE-58" value="IPv4:" style="text;html=1;align=center;verticalAlign=middle;whiteSpace=wrap;rounded=0;" parent="1" vertex="1">
          <mxGeometry x="-10" y="467" width="60" height="30" as="geometry" />
        </mxCell>
        <mxCell id="KQzyhgybYL7EZxoWA8rE-59" value="IPv6:" style="text;html=1;align=center;verticalAlign=middle;whiteSpace=wrap;rounded=0;" parent="1" vertex="1">
          <mxGeometry x="-10" y="632" width="60" height="30" as="geometry" />
        </mxCell>
        <mxCell id="KQzyhgybYL7EZxoWA8rE-60" value="" style="endArrow=none;html=1;rounded=0;entryX=0.05;entryY=0;entryDx=0;entryDy=0;entryPerimeter=0;exitX=0.05;exitY=1;exitDx=0;exitDy=0;exitPerimeter=0;" parent="1" source="KQzyhgybYL7EZxoWA8rE-57" target="KQzyhgybYL7EZxoWA8rE-57" edge="1">
          <mxGeometry width="50" height="50" relative="1" as="geometry">
            <mxPoint x="310" y="607" as="sourcePoint" />
            <mxPoint x="360" y="557" as="targetPoint" />
          </mxGeometry>
        </mxCell>
        <mxCell id="KQzyhgybYL7EZxoWA8rE-61" value="4bits" style="text;html=1;align=center;verticalAlign=middle;whiteSpace=wrap;rounded=0;" parent="1" vertex="1">
          <mxGeometry x="75" y="635" width="30" height="30" as="geometry" />
        </mxCell>
        <mxCell id="KQzyhgybYL7EZxoWA8rE-62" value="版本&lt;div&gt;4 - IPv4&lt;/div&gt;&lt;div&gt;6-IPv6&lt;/div&gt;" style="text;html=1;align=center;verticalAlign=middle;whiteSpace=wrap;rounded=0;" parent="1" vertex="1">
          <mxGeometry x="60" y="687" width="60" height="30" as="geometry" />
        </mxCell>
        <mxCell id="KQzyhgybYL7EZxoWA8rE-63" value="8bits" style="text;html=1;align=center;verticalAlign=middle;whiteSpace=wrap;rounded=0;" parent="1" vertex="1">
          <mxGeometry x="115" y="635" width="30" height="30" as="geometry" />
        </mxCell>
        <mxCell id="KQzyhgybYL7EZxoWA8rE-65" value="通信量类别" style="text;html=1;align=center;verticalAlign=middle;whiteSpace=wrap;rounded=0;" parent="1" vertex="1">
          <mxGeometry x="109" y="590" width="45" height="30" as="geometry" />
        </mxCell>
        <mxCell id="KQzyhgybYL7EZxoWA8rE-66" value="" style="endArrow=none;html=1;rounded=0;entryX=0.19;entryY=0;entryDx=0;entryDy=0;entryPerimeter=0;exitX=0.19;exitY=1;exitDx=0;exitDy=0;exitPerimeter=0;" parent="1" source="KQzyhgybYL7EZxoWA8rE-57" target="KQzyhgybYL7EZxoWA8rE-57" edge="1">
          <mxGeometry width="50" height="50" relative="1" as="geometry">
            <mxPoint x="300" y="680" as="sourcePoint" />
            <mxPoint x="350" y="630" as="targetPoint" />
          </mxGeometry>
        </mxCell>
        <mxCell id="KQzyhgybYL7EZxoWA8rE-67" value="20bits" style="text;html=1;align=center;verticalAlign=middle;whiteSpace=wrap;rounded=0;" parent="1" vertex="1">
          <mxGeometry x="168.5" y="635" width="30" height="30" as="geometry" />
        </mxCell>
        <mxCell id="KQzyhgybYL7EZxoWA8rE-68" value="流标签&lt;div&gt;(音视频流等使用)&lt;/div&gt;" style="text;html=1;align=center;verticalAlign=middle;whiteSpace=wrap;rounded=0;" parent="1" vertex="1">
          <mxGeometry x="154" y="687" width="60" height="30" as="geometry" />
        </mxCell>
        <mxCell id="KQzyhgybYL7EZxoWA8rE-69" value="" style="endArrow=none;html=1;rounded=0;entryX=0.25;entryY=0;entryDx=0;entryDy=0;entryPerimeter=0;exitX=0.25;exitY=1;exitDx=0;exitDy=0;exitPerimeter=0;" parent="1" source="KQzyhgybYL7EZxoWA8rE-57" target="KQzyhgybYL7EZxoWA8rE-57" edge="1">
          <mxGeometry width="50" height="50" relative="1" as="geometry">
            <mxPoint x="300" y="680" as="sourcePoint" />
            <mxPoint x="350" y="630" as="targetPoint" />
          </mxGeometry>
        </mxCell>
        <mxCell id="KQzyhgybYL7EZxoWA8rE-70" value="16bits" style="text;html=1;align=center;verticalAlign=middle;whiteSpace=wrap;rounded=0;" parent="1" vertex="1">
          <mxGeometry x="230" y="635" width="30" height="30" as="geometry" />
        </mxCell>
        <mxCell id="KQzyhgybYL7EZxoWA8rE-71" value="有效载荷长度" style="text;html=1;align=center;verticalAlign=middle;whiteSpace=wrap;rounded=0;" parent="1" vertex="1">
          <mxGeometry x="218" y="590" width="60" height="30" as="geometry" />
        </mxCell>
        <mxCell id="KQzyhgybYL7EZxoWA8rE-72" value="" style="endArrow=none;html=1;rounded=0;entryX=0.33;entryY=0;entryDx=0;entryDy=0;entryPerimeter=0;exitX=0.33;exitY=1;exitDx=0;exitDy=0;exitPerimeter=0;" parent="1" source="KQzyhgybYL7EZxoWA8rE-57" target="KQzyhgybYL7EZxoWA8rE-57" edge="1">
          <mxGeometry width="50" height="50" relative="1" as="geometry">
            <mxPoint x="300" y="680" as="sourcePoint" />
            <mxPoint x="350" y="630" as="targetPoint" />
          </mxGeometry>
        </mxCell>
        <mxCell id="KQzyhgybYL7EZxoWA8rE-73" value="8bits" style="text;html=1;align=center;verticalAlign=middle;whiteSpace=wrap;rounded=0;" parent="1" vertex="1">
          <mxGeometry x="290.5" y="635" width="30" height="30" as="geometry" />
        </mxCell>
        <mxCell id="KQzyhgybYL7EZxoWA8rE-74" value="下一头部类型&lt;div&gt;TCP/UDP/IPv6扩展...&lt;/div&gt;" style="text;html=1;align=center;verticalAlign=middle;whiteSpace=wrap;rounded=0;" parent="1" vertex="1">
          <mxGeometry x="268" y="686" width="82" height="30" as="geometry" />
        </mxCell>
        <mxCell id="KQzyhgybYL7EZxoWA8rE-75" value="" style="endArrow=none;html=1;rounded=0;entryX=0.38;entryY=0;entryDx=0;entryDy=0;entryPerimeter=0;exitX=0.38;exitY=1;exitDx=0;exitDy=0;exitPerimeter=0;" parent="1" source="KQzyhgybYL7EZxoWA8rE-57" target="KQzyhgybYL7EZxoWA8rE-57" edge="1">
          <mxGeometry width="50" height="50" relative="1" as="geometry">
            <mxPoint x="300" y="680" as="sourcePoint" />
            <mxPoint x="350" y="630" as="targetPoint" />
          </mxGeometry>
        </mxCell>
        <mxCell id="KQzyhgybYL7EZxoWA8rE-77" value="8bits" style="text;html=1;align=center;verticalAlign=middle;whiteSpace=wrap;rounded=0;" parent="1" vertex="1">
          <mxGeometry x="342" y="635" width="30" height="30" as="geometry" />
        </mxCell>
        <mxCell id="KQzyhgybYL7EZxoWA8rE-78" value="HopLimit&lt;div&gt;(= TTL)&lt;/div&gt;" style="text;html=1;align=center;verticalAlign=middle;whiteSpace=wrap;rounded=0;" parent="1" vertex="1">
          <mxGeometry x="327" y="590" width="60" height="30" as="geometry" />
        </mxCell>
        <mxCell id="KQzyhgybYL7EZxoWA8rE-79" value="" style="endArrow=none;html=1;rounded=0;exitX=0.52;exitY=1;exitDx=0;exitDy=0;exitPerimeter=0;entryX=0.52;entryY=0;entryDx=0;entryDy=0;entryPerimeter=0;" parent="1" source="KQzyhgybYL7EZxoWA8rE-57" target="KQzyhgybYL7EZxoWA8rE-57" edge="1">
          <mxGeometry width="50" height="50" relative="1" as="geometry">
            <mxPoint x="410" y="680" as="sourcePoint" />
            <mxPoint x="460" y="630" as="targetPoint" />
          </mxGeometry>
        </mxCell>
        <mxCell id="KQzyhgybYL7EZxoWA8rE-80" value="128bits" style="text;html=1;align=center;verticalAlign=middle;whiteSpace=wrap;rounded=0;" parent="1" vertex="1">
          <mxGeometry x="418" y="632" width="30" height="30" as="geometry" />
        </mxCell>
        <mxCell id="KQzyhgybYL7EZxoWA8rE-81" value="128bits" style="text;html=1;align=center;verticalAlign=middle;whiteSpace=wrap;rounded=0;" parent="1" vertex="1">
          <mxGeometry x="542" y="632" width="30" height="30" as="geometry" />
        </mxCell>
        <mxCell id="KQzyhgybYL7EZxoWA8rE-82" value="" style="endArrow=none;html=1;rounded=0;exitX=0.67;exitY=1;exitDx=0;exitDy=0;exitPerimeter=0;entryX=0.67;entryY=0;entryDx=0;entryDy=0;entryPerimeter=0;" parent="1" source="KQzyhgybYL7EZxoWA8rE-57" target="KQzyhgybYL7EZxoWA8rE-57" edge="1">
          <mxGeometry width="50" height="50" relative="1" as="geometry">
            <mxPoint x="410" y="680" as="sourcePoint" />
            <mxPoint x="460" y="630" as="targetPoint" />
          </mxGeometry>
        </mxCell>
        <mxCell id="KQzyhgybYL7EZxoWA8rE-83" value="源IP" style="text;html=1;align=center;verticalAlign=middle;whiteSpace=wrap;rounded=0;" parent="1" vertex="1">
          <mxGeometry x="411.5" y="686" width="60" height="30" as="geometry" />
        </mxCell>
        <mxCell id="KQzyhgybYL7EZxoWA8rE-84" value="目的IP" style="text;html=1;align=center;verticalAlign=middle;whiteSpace=wrap;rounded=0;" parent="1" vertex="1">
          <mxGeometry x="527" y="686" width="60" height="30" as="geometry" />
        </mxCell>
        <mxCell id="KQzyhgybYL7EZxoWA8rE-87" value="" style="endArrow=none;html=1;rounded=0;entryX=0.1;entryY=0;entryDx=0;entryDy=0;entryPerimeter=0;exitX=0.1;exitY=1;exitDx=0;exitDy=0;exitPerimeter=0;" parent="1" source="KQzyhgybYL7EZxoWA8rE-57" target="KQzyhgybYL7EZxoWA8rE-57" edge="1">
          <mxGeometry width="50" height="50" relative="1" as="geometry">
            <mxPoint x="107" y="712" as="sourcePoint" />
            <mxPoint x="157" y="662" as="targetPoint" />
          </mxGeometry>
        </mxCell>
        <mxCell id="KQzyhgybYL7EZxoWA8rE-88" value="" style="endArrow=none;html=1;rounded=0;entryX=0.76;entryY=0;entryDx=0;entryDy=0;entryPerimeter=0;exitX=0.76;exitY=1;exitDx=0;exitDy=0;exitPerimeter=0;" parent="1" source="KQzyhgybYL7EZxoWA8rE-57" target="KQzyhgybYL7EZxoWA8rE-57" edge="1">
          <mxGeometry width="50" height="50" relative="1" as="geometry">
            <mxPoint x="500" y="660" as="sourcePoint" />
            <mxPoint x="550" y="610" as="targetPoint" />
          </mxGeometry>
        </mxCell>
        <mxCell id="KQzyhgybYL7EZxoWA8rE-89" value="可变" style="text;html=1;align=center;verticalAlign=middle;whiteSpace=wrap;rounded=0;" parent="1" vertex="1">
          <mxGeometry x="620" y="632" width="60" height="30" as="geometry" />
        </mxCell>
        <mxCell id="KQzyhgybYL7EZxoWA8rE-90" value="扩展头" style="text;html=1;align=center;verticalAlign=middle;whiteSpace=wrap;rounded=0;" parent="1" vertex="1">
          <mxGeometry x="616" y="686" width="60" height="30" as="geometry" />
        </mxCell>
      </root>
    </mxGraphModel>
  </diagram>
  <diagram id="cA0tiZwuC7G_AS7CmbOw" name="交换机">
    <mxGraphModel dx="794" dy="557" grid="1" gridSize="10" guides="1" tooltips="1" connect="1" arrows="1" fold="1" page="1" pageScale="1" pageWidth="850" pageHeight="1100" math="0" shadow="0">
      <root>
        <mxCell id="0" />
        <mxCell id="1" parent="0" />
        <mxCell id="4qZplu9gNJl2aV-C8ccd-4" value="" style="rounded=0;whiteSpace=wrap;html=1;dashed=1;fillColor=none;" vertex="1" parent="1">
          <mxGeometry x="140" y="50" width="630" height="350" as="geometry" />
        </mxCell>
        <mxCell id="4qZplu9gNJl2aV-C8ccd-14" style="edgeStyle=orthogonalEdgeStyle;rounded=0;orthogonalLoop=1;jettySize=auto;html=1;exitX=1;exitY=0.5;exitDx=0;exitDy=0;entryX=0.5;entryY=0;entryDx=0;entryDy=0;" edge="1" parent="1" source="4qZplu9gNJl2aV-C8ccd-1" target="4qZplu9gNJl2aV-C8ccd-8">
          <mxGeometry relative="1" as="geometry" />
        </mxCell>
        <mxCell id="4qZplu9gNJl2aV-C8ccd-1" value="主机1" style="rounded=1;whiteSpace=wrap;html=1;fillColor=#dae8fc;strokeColor=#6c8ebf;" vertex="1" parent="1">
          <mxGeometry x="200" y="93" width="120" height="60" as="geometry" />
        </mxCell>
        <mxCell id="4qZplu9gNJl2aV-C8ccd-13" style="edgeStyle=orthogonalEdgeStyle;rounded=0;orthogonalLoop=1;jettySize=auto;html=1;exitX=0.5;exitY=1;exitDx=0;exitDy=0;entryX=1;entryY=0.5;entryDx=0;entryDy=0;" edge="1" parent="1" source="4qZplu9gNJl2aV-C8ccd-5" target="4qZplu9gNJl2aV-C8ccd-8">
          <mxGeometry relative="1" as="geometry" />
        </mxCell>
        <mxCell id="4qZplu9gNJl2aV-C8ccd-5" value="主机2" style="rounded=1;whiteSpace=wrap;html=1;fillColor=#dae8fc;strokeColor=#6c8ebf;" vertex="1" parent="1">
          <mxGeometry x="590" y="93" width="120" height="60" as="geometry" />
        </mxCell>
        <mxCell id="4qZplu9gNJl2aV-C8ccd-16" style="edgeStyle=orthogonalEdgeStyle;rounded=0;orthogonalLoop=1;jettySize=auto;html=1;exitX=0.5;exitY=0;exitDx=0;exitDy=0;entryX=0;entryY=0.5;entryDx=0;entryDy=0;" edge="1" parent="1" source="4qZplu9gNJl2aV-C8ccd-6" target="4qZplu9gNJl2aV-C8ccd-8">
          <mxGeometry relative="1" as="geometry" />
        </mxCell>
        <mxCell id="4qZplu9gNJl2aV-C8ccd-6" value="主机3" style="rounded=1;whiteSpace=wrap;html=1;fillColor=#dae8fc;strokeColor=#6c8ebf;" vertex="1" parent="1">
          <mxGeometry x="200" y="313" width="120" height="60" as="geometry" />
        </mxCell>
        <mxCell id="4qZplu9gNJl2aV-C8ccd-15" style="edgeStyle=orthogonalEdgeStyle;rounded=0;orthogonalLoop=1;jettySize=auto;html=1;exitX=0;exitY=0.5;exitDx=0;exitDy=0;entryX=0.5;entryY=1;entryDx=0;entryDy=0;" edge="1" parent="1" source="4qZplu9gNJl2aV-C8ccd-7" target="4qZplu9gNJl2aV-C8ccd-8">
          <mxGeometry relative="1" as="geometry" />
        </mxCell>
        <mxCell id="4qZplu9gNJl2aV-C8ccd-7" value="主机4" style="rounded=1;whiteSpace=wrap;html=1;fillColor=#dae8fc;strokeColor=#6c8ebf;" vertex="1" parent="1">
          <mxGeometry x="590" y="313" width="120" height="60" as="geometry" />
        </mxCell>
        <mxCell id="4qZplu9gNJl2aV-C8ccd-8" value="" style="ellipse;whiteSpace=wrap;html=1;aspect=fixed;fillColor=#f8cecc;strokeColor=#b85450;" vertex="1" parent="1">
          <mxGeometry x="415" y="193" width="80" height="80" as="geometry" />
        </mxCell>
        <mxCell id="4qZplu9gNJl2aV-C8ccd-10" value="" style="endArrow=none;html=1;rounded=0;entryX=0;entryY=0;entryDx=0;entryDy=0;exitX=1;exitY=1;exitDx=0;exitDy=0;strokeColor=#CC6600;" edge="1" parent="1" source="4qZplu9gNJl2aV-C8ccd-8" target="4qZplu9gNJl2aV-C8ccd-8">
          <mxGeometry width="50" height="50" relative="1" as="geometry">
            <mxPoint x="430" y="333" as="sourcePoint" />
            <mxPoint x="480" y="283" as="targetPoint" />
          </mxGeometry>
        </mxCell>
        <mxCell id="4qZplu9gNJl2aV-C8ccd-11" value="" style="endArrow=none;html=1;rounded=0;entryX=1;entryY=0;entryDx=0;entryDy=0;exitX=0;exitY=1;exitDx=0;exitDy=0;strokeColor=#CC6600;" edge="1" parent="1" source="4qZplu9gNJl2aV-C8ccd-8" target="4qZplu9gNJl2aV-C8ccd-8">
          <mxGeometry width="50" height="50" relative="1" as="geometry">
            <mxPoint x="430" y="333" as="sourcePoint" />
            <mxPoint x="480" y="283" as="targetPoint" />
          </mxGeometry>
        </mxCell>
        <mxCell id="4qZplu9gNJl2aV-C8ccd-17" value="交换机" style="text;html=1;align=center;verticalAlign=middle;whiteSpace=wrap;rounded=0;" vertex="1" parent="1">
          <mxGeometry x="470" y="271" width="60" height="30" as="geometry" />
        </mxCell>
        <mxCell id="4qZplu9gNJl2aV-C8ccd-18" value="局域网" style="text;html=1;align=center;verticalAlign=middle;whiteSpace=wrap;rounded=0;fontStyle=1;fontSize=16;" vertex="1" parent="1">
          <mxGeometry x="150" y="60" width="60" height="30" as="geometry" />
        </mxCell>
      </root>
    </mxGraphModel>
  </diagram>
  <diagram id="ZRq-x2-4EOhKTq2LDHYG" name="UDP">
    <mxGraphModel dx="794" dy="557" grid="1" gridSize="10" guides="1" tooltips="1" connect="1" arrows="1" fold="1" page="1" pageScale="1" pageWidth="850" pageHeight="1100" math="0" shadow="0">
      <root>
        <mxCell id="0" />
        <mxCell id="1" parent="0" />
        <mxCell id="KT6dmjSgCsR-XK4Qj9pG-1" value="" style="rounded=0;whiteSpace=wrap;html=1;points=[[0,0,0,0,0],[0,0.25,0,0,0],[0,0.5,0,0,0],[0,0.75,0,0,0],[0,1,0,0,0],[0.06,0,0,0,0],[0.06,1,0,0,0],[0.13,0,0,0,0],[0.13,1,0,0,0],[0.19,0,0,0,0],[0.19,1,0,0,0],[0.25,0,0,0,0],[0.25,1,0,0,0],[0.31,0,0,0,0],[0.31,1,0,0,0],[0.38,0,0,0,0],[0.38,1,0,0,0],[0.44,0,0,0,0],[0.44,1,0,0,0],[0.5,0,0,0,0],[0.5,1,0,0,0],[0.56,0,0,0,0],[0.56,1,0,0,0],[0.63,0,0,0,0],[0.63,1,0,0,0],[0.69,0,0,0,0],[0.69,1,0,0,0],[0.75,0,0,0,0],[0.75,1,0,0,0],[0.81,0,0,0,0],[0.81,1,0,0,0],[0.88,0,0,0,0],[0.88,1,0,0,0],[0.94,0,0,0,0],[0.94,1,0,0,0],[1,0,0,0,0],[1,0.25,0,0,0],[1,0.5,0,0,0],[1,0.75,0,0,0],[1,1,0,0,0]];" vertex="1" parent="1">
          <mxGeometry x="80" y="140" width="610" height="40" as="geometry" />
        </mxCell>
        <mxCell id="KT6dmjSgCsR-XK4Qj9pG-3" value="MAC头" style="text;html=1;align=center;verticalAlign=middle;whiteSpace=wrap;rounded=0;" vertex="1" parent="1">
          <mxGeometry x="107" y="145" width="60" height="30" as="geometry" />
        </mxCell>
        <mxCell id="mBO8IXk76jbHYQbmikcb-1" value="" style="endArrow=none;html=1;rounded=0;entryX=0.94;entryY=0;entryDx=0;entryDy=0;entryPerimeter=0;exitX=0.94;exitY=1;exitDx=0;exitDy=0;exitPerimeter=0;" edge="1" parent="1" source="KT6dmjSgCsR-XK4Qj9pG-1" target="KT6dmjSgCsR-XK4Qj9pG-1">
          <mxGeometry width="50" height="50" relative="1" as="geometry">
            <mxPoint x="380" y="320" as="sourcePoint" />
            <mxPoint x="430" y="270" as="targetPoint" />
          </mxGeometry>
        </mxCell>
        <mxCell id="mBO8IXk76jbHYQbmikcb-2" value="CRC" style="text;html=1;align=center;verticalAlign=middle;whiteSpace=wrap;rounded=0;" vertex="1" parent="1">
          <mxGeometry x="652" y="145" width="40" height="30" as="geometry" />
        </mxCell>
        <mxCell id="mBO8IXk76jbHYQbmikcb-3" value="" style="endArrow=none;html=1;rounded=0;entryX=0.19;entryY=0;entryDx=0;entryDy=0;entryPerimeter=0;exitX=0.19;exitY=1;exitDx=0;exitDy=0;exitPerimeter=0;" edge="1" parent="1" source="KT6dmjSgCsR-XK4Qj9pG-1" target="KT6dmjSgCsR-XK4Qj9pG-1">
          <mxGeometry width="50" height="50" relative="1" as="geometry">
            <mxPoint x="380" y="320" as="sourcePoint" />
            <mxPoint x="430" y="270" as="targetPoint" />
          </mxGeometry>
        </mxCell>
        <mxCell id="mBO8IXk76jbHYQbmikcb-4" value="" style="endArrow=none;html=1;rounded=0;entryX=0.38;entryY=0;entryDx=0;entryDy=0;entryPerimeter=0;exitX=0.38;exitY=1;exitDx=0;exitDy=0;exitPerimeter=0;" edge="1" parent="1" source="KT6dmjSgCsR-XK4Qj9pG-1" target="KT6dmjSgCsR-XK4Qj9pG-1">
          <mxGeometry width="50" height="50" relative="1" as="geometry">
            <mxPoint x="380" y="320" as="sourcePoint" />
            <mxPoint x="430" y="270" as="targetPoint" />
          </mxGeometry>
        </mxCell>
        <mxCell id="mBO8IXk76jbHYQbmikcb-5" value="IP头" style="text;html=1;align=center;verticalAlign=middle;whiteSpace=wrap;rounded=0;" vertex="1" parent="1">
          <mxGeometry x="223" y="146" width="60" height="30" as="geometry" />
        </mxCell>
        <mxCell id="mBO8IXk76jbHYQbmikcb-6" value="" style="rounded=0;whiteSpace=wrap;html=1;fillColor=#d5e8d4;strokeColor=#82b366;" vertex="1" parent="1">
          <mxGeometry x="311" y="140" width="343" height="40" as="geometry" />
        </mxCell>
        <mxCell id="mBO8IXk76jbHYQbmikcb-7" value="" style="rounded=0;whiteSpace=wrap;html=1;points=[[0,0,0,0,0],[0,0.25,0,0,0],[0,0.5,0,0,0],[0,0.75,0,0,0],[0,1,0,0,0],[0.06,0,0,0,0],[0.06,1,0,0,0],[0.13,0,0,0,0],[0.13,1,0,0,0],[0.19,0,0,0,0],[0.19,1,0,0,0],[0.25,0,0,0,0],[0.25,1,0,0,0],[0.31,0,0,0,0],[0.31,1,0,0,0],[0.38,0,0,0,0],[0.38,1,0,0,0],[0.44,0,0,0,0],[0.44,1,0,0,0],[0.5,0,0,0,0],[0.5,1,0,0,0],[0.56,0,0,0,0],[0.56,1,0,0,0],[0.63,0,0,0,0],[0.63,1,0,0,0],[0.69,0,0,0,0],[0.69,1,0,0,0],[0.75,0,0,0,0],[0.75,1,0,0,0],[0.81,0,0,0,0],[0.81,1,0,0,0],[0.88,0,0,0,0],[0.88,1,0,0,0],[0.94,0,0,0,0],[0.94,1,0,0,0],[1,0,0,0,0],[1,0.25,0,0,0],[1,0.5,0,0,0],[1,0.75,0,0,0],[1,1,0,0,0]];fillColor=#d5e8d4;strokeColor=#82b366;" vertex="1" parent="1">
          <mxGeometry x="170" y="250" width="640" height="40" as="geometry" />
        </mxCell>
        <mxCell id="mBO8IXk76jbHYQbmikcb-8" value="16bits" style="text;html=1;align=center;verticalAlign=middle;whiteSpace=wrap;rounded=0;" vertex="1" parent="1">
          <mxGeometry x="169" y="255" width="40" height="30" as="geometry" />
        </mxCell>
        <mxCell id="mBO8IXk76jbHYQbmikcb-9" value="" style="endArrow=none;html=1;rounded=0;entryX=0.06;entryY=0;entryDx=0;entryDy=0;entryPerimeter=0;exitX=0.06;exitY=1;exitDx=0;exitDy=0;exitPerimeter=0;" edge="1" parent="1" source="mBO8IXk76jbHYQbmikcb-7" target="mBO8IXk76jbHYQbmikcb-7">
          <mxGeometry width="50" height="50" relative="1" as="geometry">
            <mxPoint x="520" y="340" as="sourcePoint" />
            <mxPoint x="570" y="290" as="targetPoint" />
          </mxGeometry>
        </mxCell>
        <mxCell id="mBO8IXk76jbHYQbmikcb-10" value="源端口" style="text;html=1;align=center;verticalAlign=middle;whiteSpace=wrap;rounded=0;" vertex="1" parent="1">
          <mxGeometry x="163.5" y="297" width="51" height="30" as="geometry" />
        </mxCell>
        <mxCell id="mBO8IXk76jbHYQbmikcb-11" value="目的端口" style="text;html=1;align=center;verticalAlign=middle;whiteSpace=wrap;rounded=0;" vertex="1" parent="1">
          <mxGeometry x="208" y="215" width="51" height="30" as="geometry" />
        </mxCell>
        <mxCell id="mBO8IXk76jbHYQbmikcb-12" value="16bits" style="text;html=1;align=center;verticalAlign=middle;whiteSpace=wrap;rounded=0;" vertex="1" parent="1">
          <mxGeometry x="211" y="255" width="40" height="30" as="geometry" />
        </mxCell>
        <mxCell id="mBO8IXk76jbHYQbmikcb-13" value="" style="endArrow=none;html=1;rounded=0;entryX=0.13;entryY=0;entryDx=0;entryDy=0;entryPerimeter=0;exitX=0.13;exitY=1;exitDx=0;exitDy=0;exitPerimeter=0;" edge="1" parent="1" source="mBO8IXk76jbHYQbmikcb-7" target="mBO8IXk76jbHYQbmikcb-7">
          <mxGeometry width="50" height="50" relative="1" as="geometry">
            <mxPoint x="390" y="340" as="sourcePoint" />
            <mxPoint x="440" y="290" as="targetPoint" />
          </mxGeometry>
        </mxCell>
        <mxCell id="mBO8IXk76jbHYQbmikcb-15" value="16bits" style="text;html=1;align=center;verticalAlign=middle;whiteSpace=wrap;rounded=0;" vertex="1" parent="1">
          <mxGeometry x="252" y="255" width="40" height="30" as="geometry" />
        </mxCell>
        <mxCell id="mBO8IXk76jbHYQbmikcb-16" value="" style="endArrow=none;html=1;rounded=0;entryX=0.19;entryY=0;entryDx=0;entryDy=0;entryPerimeter=0;exitX=0.19;exitY=1;exitDx=0;exitDy=0;exitPerimeter=0;" edge="1" parent="1" source="mBO8IXk76jbHYQbmikcb-7" target="mBO8IXk76jbHYQbmikcb-7">
          <mxGeometry width="50" height="50" relative="1" as="geometry">
            <mxPoint x="450" y="340" as="sourcePoint" />
            <mxPoint x="500" y="290" as="targetPoint" />
          </mxGeometry>
        </mxCell>
        <mxCell id="mBO8IXk76jbHYQbmikcb-17" value="UDP长度" style="text;html=1;align=center;verticalAlign=middle;whiteSpace=wrap;rounded=0;" vertex="1" parent="1">
          <mxGeometry x="242" y="297" width="60" height="30" as="geometry" />
        </mxCell>
        <mxCell id="mBO8IXk76jbHYQbmikcb-18" value="16bits" style="text;html=1;align=center;verticalAlign=middle;whiteSpace=wrap;rounded=0;" vertex="1" parent="1">
          <mxGeometry x="291" y="256" width="40" height="30" as="geometry" />
        </mxCell>
        <mxCell id="mBO8IXk76jbHYQbmikcb-19" value="" style="endArrow=none;html=1;rounded=0;entryX=0.25;entryY=0;entryDx=0;entryDy=0;entryPerimeter=0;exitX=0.25;exitY=1;exitDx=0;exitDy=0;exitPerimeter=0;" edge="1" parent="1" source="mBO8IXk76jbHYQbmikcb-7" target="mBO8IXk76jbHYQbmikcb-7">
          <mxGeometry width="50" height="50" relative="1" as="geometry">
            <mxPoint x="450" y="340" as="sourcePoint" />
            <mxPoint x="500" y="290" as="targetPoint" />
          </mxGeometry>
        </mxCell>
        <mxCell id="mBO8IXk76jbHYQbmikcb-20" value="UDP校验和" style="text;html=1;align=center;verticalAlign=middle;whiteSpace=wrap;rounded=0;" vertex="1" parent="1">
          <mxGeometry x="276" y="216" width="70" height="30" as="geometry" />
        </mxCell>
        <mxCell id="mBO8IXk76jbHYQbmikcb-21" value="数据" style="text;html=1;align=center;verticalAlign=middle;whiteSpace=wrap;rounded=0;" vertex="1" parent="1">
          <mxGeometry x="510" y="256" width="60" height="30" as="geometry" />
        </mxCell>
        <mxCell id="mBO8IXk76jbHYQbmikcb-22" value="" style="endArrow=classic;html=1;rounded=0;exitX=0.38;exitY=1;exitDx=0;exitDy=0;exitPerimeter=0;entryX=0;entryY=0;entryDx=0;entryDy=0;entryPerimeter=0;" edge="1" parent="1" source="KT6dmjSgCsR-XK4Qj9pG-1" target="mBO8IXk76jbHYQbmikcb-7">
          <mxGeometry width="50" height="50" relative="1" as="geometry">
            <mxPoint x="450" y="340" as="sourcePoint" />
            <mxPoint x="500" y="290" as="targetPoint" />
          </mxGeometry>
        </mxCell>
        <mxCell id="mBO8IXk76jbHYQbmikcb-23" style="rounded=0;orthogonalLoop=1;jettySize=auto;html=1;exitX=0.94;exitY=1;exitDx=0;exitDy=0;exitPerimeter=0;entryX=1;entryY=0;entryDx=0;entryDy=0;entryPerimeter=0;" edge="1" parent="1" source="KT6dmjSgCsR-XK4Qj9pG-1" target="mBO8IXk76jbHYQbmikcb-7">
          <mxGeometry relative="1" as="geometry" />
        </mxCell>
      </root>
    </mxGraphModel>
  </diagram>
  <diagram id="MkjLaonrHeAMPUCT3Ant" name="TCP">
    <mxGraphModel dx="794" dy="557" grid="1" gridSize="10" guides="1" tooltips="1" connect="1" arrows="1" fold="1" page="1" pageScale="1" pageWidth="850" pageHeight="1100" math="0" shadow="0">
      <root>
        <mxCell id="0" />
        <mxCell id="1" parent="0" />
        <mxCell id="FYtvYPr30sQjd2Cvnd5n-1" value="" style="rounded=0;whiteSpace=wrap;html=1;points=[[0,0,0,0,0],[0,0.25,0,0,0],[0,0.5,0,0,0],[0,0.75,0,0,0],[0,1,0,0,0],[0.06,0,0,0,0],[0.06,1,0,0,0],[0.13,0,0,0,0],[0.13,1,0,0,0],[0.19,0,0,0,0],[0.19,1,0,0,0],[0.25,0,0,0,0],[0.25,1,0,0,0],[0.31,0,0,0,0],[0.31,1,0,0,0],[0.38,0,0,0,0],[0.38,1,0,0,0],[0.44,0,0,0,0],[0.44,1,0,0,0],[0.5,0,0,0,0],[0.5,1,0,0,0],[0.56,0,0,0,0],[0.56,1,0,0,0],[0.63,0,0,0,0],[0.63,1,0,0,0],[0.69,0,0,0,0],[0.69,1,0,0,0],[0.75,0,0,0,0],[0.75,1,0,0,0],[0.81,0,0,0,0],[0.81,1,0,0,0],[0.88,0,0,0,0],[0.88,1,0,0,0],[0.94,0,0,0,0],[0.94,1,0,0,0],[1,0,0,0,0],[1,0.25,0,0,0],[1,0.5,0,0,0],[1,0.75,0,0,0],[1,1,0,0,0]];" vertex="1" parent="1">
          <mxGeometry x="80" y="140" width="610" height="40" as="geometry" />
        </mxCell>
        <mxCell id="FYtvYPr30sQjd2Cvnd5n-2" value="MAC头" style="text;html=1;align=center;verticalAlign=middle;whiteSpace=wrap;rounded=0;" vertex="1" parent="1">
          <mxGeometry x="107" y="145" width="60" height="30" as="geometry" />
        </mxCell>
        <mxCell id="FYtvYPr30sQjd2Cvnd5n-3" value="" style="endArrow=none;html=1;rounded=0;entryX=0.94;entryY=0;entryDx=0;entryDy=0;entryPerimeter=0;exitX=0.94;exitY=1;exitDx=0;exitDy=0;exitPerimeter=0;" edge="1" parent="1" source="FYtvYPr30sQjd2Cvnd5n-1" target="FYtvYPr30sQjd2Cvnd5n-1">
          <mxGeometry width="50" height="50" relative="1" as="geometry">
            <mxPoint x="380" y="320" as="sourcePoint" />
            <mxPoint x="430" y="270" as="targetPoint" />
          </mxGeometry>
        </mxCell>
        <mxCell id="FYtvYPr30sQjd2Cvnd5n-4" value="CRC" style="text;html=1;align=center;verticalAlign=middle;whiteSpace=wrap;rounded=0;" vertex="1" parent="1">
          <mxGeometry x="652" y="145" width="40" height="30" as="geometry" />
        </mxCell>
        <mxCell id="FYtvYPr30sQjd2Cvnd5n-5" value="" style="endArrow=none;html=1;rounded=0;entryX=0.19;entryY=0;entryDx=0;entryDy=0;entryPerimeter=0;exitX=0.19;exitY=1;exitDx=0;exitDy=0;exitPerimeter=0;" edge="1" parent="1" source="FYtvYPr30sQjd2Cvnd5n-1" target="FYtvYPr30sQjd2Cvnd5n-1">
          <mxGeometry width="50" height="50" relative="1" as="geometry">
            <mxPoint x="380" y="320" as="sourcePoint" />
            <mxPoint x="430" y="270" as="targetPoint" />
          </mxGeometry>
        </mxCell>
        <mxCell id="FYtvYPr30sQjd2Cvnd5n-6" value="" style="endArrow=none;html=1;rounded=0;entryX=0.38;entryY=0;entryDx=0;entryDy=0;entryPerimeter=0;exitX=0.38;exitY=1;exitDx=0;exitDy=0;exitPerimeter=0;" edge="1" parent="1" source="FYtvYPr30sQjd2Cvnd5n-1" target="FYtvYPr30sQjd2Cvnd5n-1">
          <mxGeometry width="50" height="50" relative="1" as="geometry">
            <mxPoint x="380" y="320" as="sourcePoint" />
            <mxPoint x="430" y="270" as="targetPoint" />
          </mxGeometry>
        </mxCell>
        <mxCell id="FYtvYPr30sQjd2Cvnd5n-7" value="IP头" style="text;html=1;align=center;verticalAlign=middle;whiteSpace=wrap;rounded=0;" vertex="1" parent="1">
          <mxGeometry x="223" y="146" width="60" height="30" as="geometry" />
        </mxCell>
        <mxCell id="FYtvYPr30sQjd2Cvnd5n-8" value="" style="rounded=0;whiteSpace=wrap;html=1;fillColor=#d5e8d4;strokeColor=#82b366;" vertex="1" parent="1">
          <mxGeometry x="311" y="140" width="343" height="40" as="geometry" />
        </mxCell>
        <mxCell id="FYtvYPr30sQjd2Cvnd5n-9" value="" style="rounded=0;whiteSpace=wrap;html=1;points=[[0,0,0,0,0],[0,0.25,0,0,0],[0,0.5,0,0,0],[0,0.75,0,0,0],[0,1,0,0,0],[0.06,0,0,0,0],[0.06,1,0,0,0],[0.13,0,0,0,0],[0.13,1,0,0,0],[0.19,0,0,0,0],[0.19,1,0,0,0],[0.25,0,0,0,0],[0.25,1,0,0,0],[0.31,0,0,0,0],[0.31,1,0,0,0],[0.38,0,0,0,0],[0.38,1,0,0,0],[0.44,0,0,0,0],[0.44,1,0,0,0],[0.5,0,0,0,0],[0.5,1,0,0,0],[0.56,0,0,0,0],[0.56,1,0,0,0],[0.63,0,0,0,0],[0.63,1,0,0,0],[0.69,0,0,0,0],[0.69,1,0,0,0],[0.75,0,0,0,0],[0.75,1,0,0,0],[0.81,0,0,0,0],[0.81,1,0,0,0],[0.88,0,0,0,0],[0.88,1,0,0,0],[0.94,0,0,0,0],[0.94,1,0,0,0],[1,0,0,0,0],[1,0.25,0,0,0],[1,0.5,0,0,0],[1,0.75,0,0,0],[1,1,0,0,0]];fillColor=#d5e8d4;strokeColor=#82b366;" vertex="1" parent="1">
          <mxGeometry x="170" y="250" width="640" height="40" as="geometry" />
        </mxCell>
        <mxCell id="FYtvYPr30sQjd2Cvnd5n-10" value="16bits" style="text;html=1;align=center;verticalAlign=middle;whiteSpace=wrap;rounded=0;" vertex="1" parent="1">
          <mxGeometry x="169" y="255" width="40" height="30" as="geometry" />
        </mxCell>
        <mxCell id="FYtvYPr30sQjd2Cvnd5n-11" value="" style="endArrow=none;html=1;rounded=0;entryX=0.06;entryY=0;entryDx=0;entryDy=0;entryPerimeter=0;exitX=0.06;exitY=1;exitDx=0;exitDy=0;exitPerimeter=0;" edge="1" parent="1" source="FYtvYPr30sQjd2Cvnd5n-9" target="FYtvYPr30sQjd2Cvnd5n-9">
          <mxGeometry width="50" height="50" relative="1" as="geometry">
            <mxPoint x="520" y="340" as="sourcePoint" />
            <mxPoint x="570" y="290" as="targetPoint" />
          </mxGeometry>
        </mxCell>
        <mxCell id="FYtvYPr30sQjd2Cvnd5n-12" value="源端口" style="text;html=1;align=center;verticalAlign=middle;whiteSpace=wrap;rounded=0;" vertex="1" parent="1">
          <mxGeometry x="163.5" y="297" width="51" height="30" as="geometry" />
        </mxCell>
        <mxCell id="FYtvYPr30sQjd2Cvnd5n-13" value="目的端口" style="text;html=1;align=center;verticalAlign=middle;whiteSpace=wrap;rounded=0;" vertex="1" parent="1">
          <mxGeometry x="208" y="215" width="51" height="30" as="geometry" />
        </mxCell>
        <mxCell id="FYtvYPr30sQjd2Cvnd5n-14" value="16bits" style="text;html=1;align=center;verticalAlign=middle;whiteSpace=wrap;rounded=0;" vertex="1" parent="1">
          <mxGeometry x="211" y="255" width="40" height="30" as="geometry" />
        </mxCell>
        <mxCell id="FYtvYPr30sQjd2Cvnd5n-15" value="" style="endArrow=none;html=1;rounded=0;entryX=0.13;entryY=0;entryDx=0;entryDy=0;entryPerimeter=0;exitX=0.13;exitY=1;exitDx=0;exitDy=0;exitPerimeter=0;" edge="1" parent="1" source="FYtvYPr30sQjd2Cvnd5n-9" target="FYtvYPr30sQjd2Cvnd5n-9">
          <mxGeometry width="50" height="50" relative="1" as="geometry">
            <mxPoint x="390" y="340" as="sourcePoint" />
            <mxPoint x="440" y="290" as="targetPoint" />
          </mxGeometry>
        </mxCell>
        <mxCell id="FYtvYPr30sQjd2Cvnd5n-16" value="32bits" style="text;html=1;align=center;verticalAlign=middle;whiteSpace=wrap;rounded=0;" vertex="1" parent="1">
          <mxGeometry x="252" y="255" width="40" height="30" as="geometry" />
        </mxCell>
        <mxCell id="FYtvYPr30sQjd2Cvnd5n-17" value="" style="endArrow=none;html=1;rounded=0;entryX=0.19;entryY=0;entryDx=0;entryDy=0;entryPerimeter=0;exitX=0.19;exitY=1;exitDx=0;exitDy=0;exitPerimeter=0;" edge="1" parent="1" source="FYtvYPr30sQjd2Cvnd5n-9" target="FYtvYPr30sQjd2Cvnd5n-9">
          <mxGeometry width="50" height="50" relative="1" as="geometry">
            <mxPoint x="450" y="340" as="sourcePoint" />
            <mxPoint x="500" y="290" as="targetPoint" />
          </mxGeometry>
        </mxCell>
        <mxCell id="FYtvYPr30sQjd2Cvnd5n-18" value="序号" style="text;html=1;align=center;verticalAlign=middle;whiteSpace=wrap;rounded=0;" vertex="1" parent="1">
          <mxGeometry x="256" y="297" width="32" height="30" as="geometry" />
        </mxCell>
        <mxCell id="FYtvYPr30sQjd2Cvnd5n-19" value="16bits" style="text;html=1;align=center;verticalAlign=middle;whiteSpace=wrap;rounded=0;" vertex="1" parent="1">
          <mxGeometry x="291" y="256" width="40" height="30" as="geometry" />
        </mxCell>
        <mxCell id="FYtvYPr30sQjd2Cvnd5n-20" value="" style="endArrow=none;html=1;rounded=0;entryX=0.25;entryY=0;entryDx=0;entryDy=0;entryPerimeter=0;exitX=0.25;exitY=1;exitDx=0;exitDy=0;exitPerimeter=0;" edge="1" parent="1" source="FYtvYPr30sQjd2Cvnd5n-9" target="FYtvYPr30sQjd2Cvnd5n-9">
          <mxGeometry width="50" height="50" relative="1" as="geometry">
            <mxPoint x="450" y="340" as="sourcePoint" />
            <mxPoint x="500" y="290" as="targetPoint" />
          </mxGeometry>
        </mxCell>
        <mxCell id="FYtvYPr30sQjd2Cvnd5n-21" value="确认序号" style="text;html=1;align=center;verticalAlign=middle;whiteSpace=wrap;rounded=0;" vertex="1" parent="1">
          <mxGeometry x="280" y="216" width="64" height="30" as="geometry" />
        </mxCell>
        <mxCell id="FYtvYPr30sQjd2Cvnd5n-22" value="数据" style="text;html=1;align=center;verticalAlign=middle;whiteSpace=wrap;rounded=0;" vertex="1" parent="1">
          <mxGeometry x="680" y="255" width="60" height="30" as="geometry" />
        </mxCell>
        <mxCell id="FYtvYPr30sQjd2Cvnd5n-23" value="" style="endArrow=classic;html=1;rounded=0;exitX=0.38;exitY=1;exitDx=0;exitDy=0;exitPerimeter=0;entryX=0;entryY=0;entryDx=0;entryDy=0;entryPerimeter=0;" edge="1" parent="1" source="FYtvYPr30sQjd2Cvnd5n-1" target="FYtvYPr30sQjd2Cvnd5n-9">
          <mxGeometry width="50" height="50" relative="1" as="geometry">
            <mxPoint x="450" y="340" as="sourcePoint" />
            <mxPoint x="500" y="290" as="targetPoint" />
          </mxGeometry>
        </mxCell>
        <mxCell id="FYtvYPr30sQjd2Cvnd5n-24" style="rounded=0;orthogonalLoop=1;jettySize=auto;html=1;exitX=0.94;exitY=1;exitDx=0;exitDy=0;exitPerimeter=0;entryX=1;entryY=0;entryDx=0;entryDy=0;entryPerimeter=0;" edge="1" parent="1" source="FYtvYPr30sQjd2Cvnd5n-1" target="FYtvYPr30sQjd2Cvnd5n-9">
          <mxGeometry relative="1" as="geometry" />
        </mxCell>
        <mxCell id="FYtvYPr30sQjd2Cvnd5n-25" value="4bits" style="text;html=1;align=center;verticalAlign=middle;whiteSpace=wrap;rounded=0;" vertex="1" parent="1">
          <mxGeometry x="334" y="256" width="30" height="30" as="geometry" />
        </mxCell>
        <mxCell id="FYtvYPr30sQjd2Cvnd5n-26" value="" style="endArrow=none;html=1;rounded=0;entryX=0.31;entryY=0;entryDx=0;entryDy=0;entryPerimeter=0;exitX=0.31;exitY=1;exitDx=0;exitDy=0;exitPerimeter=0;" edge="1" parent="1" source="FYtvYPr30sQjd2Cvnd5n-9" target="FYtvYPr30sQjd2Cvnd5n-9">
          <mxGeometry width="50" height="50" relative="1" as="geometry">
            <mxPoint x="420" y="320" as="sourcePoint" />
            <mxPoint x="470" y="270" as="targetPoint" />
          </mxGeometry>
        </mxCell>
        <mxCell id="FYtvYPr30sQjd2Cvnd5n-27" value="6&lt;span style=&quot;background-color: transparent; color: light-dark(rgb(0, 0, 0), rgb(255, 255, 255));&quot;&gt;bits&lt;/span&gt;" style="text;html=1;align=center;verticalAlign=middle;whiteSpace=wrap;rounded=0;" vertex="1" parent="1">
          <mxGeometry x="376" y="256" width="30" height="30" as="geometry" />
        </mxCell>
        <mxCell id="FYtvYPr30sQjd2Cvnd5n-28" value="" style="endArrow=none;html=1;rounded=0;entryX=0.38;entryY=0;entryDx=0;entryDy=0;entryPerimeter=0;exitX=0.38;exitY=1;exitDx=0;exitDy=0;exitPerimeter=0;" edge="1" parent="1" source="FYtvYPr30sQjd2Cvnd5n-9" target="FYtvYPr30sQjd2Cvnd5n-9">
          <mxGeometry width="50" height="50" relative="1" as="geometry">
            <mxPoint x="420" y="320" as="sourcePoint" />
            <mxPoint x="470" y="270" as="targetPoint" />
          </mxGeometry>
        </mxCell>
        <mxCell id="FYtvYPr30sQjd2Cvnd5n-29" value="首部长度" style="text;html=1;align=center;verticalAlign=middle;whiteSpace=wrap;rounded=0;" vertex="1" parent="1">
          <mxGeometry x="319" y="296" width="60" height="30" as="geometry" />
        </mxCell>
        <mxCell id="FYtvYPr30sQjd2Cvnd5n-30" value="保留" style="text;html=1;align=center;verticalAlign=middle;whiteSpace=wrap;rounded=0;" vertex="1" parent="1">
          <mxGeometry x="373" y="217" width="35" height="30" as="geometry" />
        </mxCell>
        <mxCell id="FYtvYPr30sQjd2Cvnd5n-32" value="6&lt;span style=&quot;background-color: transparent; color: light-dark(rgb(0, 0, 0), rgb(255, 255, 255));&quot;&gt;bits&lt;/span&gt;" style="text;html=1;align=center;verticalAlign=middle;whiteSpace=wrap;rounded=0;" vertex="1" parent="1">
          <mxGeometry x="417" y="256" width="30" height="30" as="geometry" />
        </mxCell>
        <mxCell id="FYtvYPr30sQjd2Cvnd5n-33" value="" style="endArrow=none;html=1;rounded=0;entryX=0.44;entryY=0;entryDx=0;entryDy=0;entryPerimeter=0;exitX=0.44;exitY=1;exitDx=0;exitDy=0;exitPerimeter=0;" edge="1" parent="1" source="FYtvYPr30sQjd2Cvnd5n-9" target="FYtvYPr30sQjd2Cvnd5n-9">
          <mxGeometry width="50" height="50" relative="1" as="geometry">
            <mxPoint x="420" y="320" as="sourcePoint" />
            <mxPoint x="470" y="270" as="targetPoint" />
          </mxGeometry>
        </mxCell>
        <mxCell id="FYtvYPr30sQjd2Cvnd5n-34" value="" style="rounded=0;whiteSpace=wrap;html=1;points=[[0,0,0,0,0],[0,0.25,0,0,0],[0,0.5,0,0,0],[0,0.75,0,0,0],[0,1,0,0,0],[0.17,0,0,0,0],[0.17,1,0,0,0],[0.25,0,0,0,0],[0.25,1,0,0,0],[0.33,0,0,0,0],[0.33,1,0,0,0],[0.5,0,0,0,0],[0.5,1,0,0,0],[0.67,0,0,0,0],[0.67,1,0,0,0],[0.75,0,0,0,0],[0.75,1,0,0,0],[0.83,0,0,0,0],[0.83,1,0,0,0],[1,0,0,0,0],[1,0.25,0,0,0],[1,0.5,0,0,0],[1,0.75,0,0,0],[1,1,0,0,0]];fillColor=#d5e8d4;strokeColor=#82b366;" vertex="1" parent="1">
          <mxGeometry x="316" y="370" width="235" height="40" as="geometry" />
        </mxCell>
        <mxCell id="FYtvYPr30sQjd2Cvnd5n-35" value="URG" style="text;html=1;align=center;verticalAlign=middle;whiteSpace=wrap;rounded=0;" vertex="1" parent="1">
          <mxGeometry x="317" y="380" width="37" height="20" as="geometry" />
        </mxCell>
        <mxCell id="FYtvYPr30sQjd2Cvnd5n-36" value="" style="endArrow=none;html=1;rounded=0;exitX=0.17;exitY=1;exitDx=0;exitDy=0;exitPerimeter=0;entryX=0.17;entryY=0;entryDx=0;entryDy=0;entryPerimeter=0;" edge="1" parent="1" source="FYtvYPr30sQjd2Cvnd5n-34" target="FYtvYPr30sQjd2Cvnd5n-34">
          <mxGeometry width="50" height="50" relative="1" as="geometry">
            <mxPoint x="371" y="320" as="sourcePoint" />
            <mxPoint x="421" y="270" as="targetPoint" />
          </mxGeometry>
        </mxCell>
        <mxCell id="FYtvYPr30sQjd2Cvnd5n-37" value="" style="endArrow=none;html=1;rounded=0;exitX=0.33;exitY=1;exitDx=0;exitDy=0;exitPerimeter=0;entryX=0.33;entryY=0;entryDx=0;entryDy=0;entryPerimeter=0;" edge="1" parent="1" source="FYtvYPr30sQjd2Cvnd5n-34" target="FYtvYPr30sQjd2Cvnd5n-34">
          <mxGeometry width="50" height="50" relative="1" as="geometry">
            <mxPoint x="371" y="320" as="sourcePoint" />
            <mxPoint x="421" y="270" as="targetPoint" />
          </mxGeometry>
        </mxCell>
        <mxCell id="FYtvYPr30sQjd2Cvnd5n-38" value="" style="endArrow=none;html=1;rounded=0;exitX=0.5;exitY=1;exitDx=0;exitDy=0;exitPerimeter=0;entryX=0.5;entryY=0;entryDx=0;entryDy=0;entryPerimeter=0;" edge="1" parent="1" source="FYtvYPr30sQjd2Cvnd5n-34" target="FYtvYPr30sQjd2Cvnd5n-34">
          <mxGeometry width="50" height="50" relative="1" as="geometry">
            <mxPoint x="371" y="320" as="sourcePoint" />
            <mxPoint x="421" y="270" as="targetPoint" />
          </mxGeometry>
        </mxCell>
        <mxCell id="FYtvYPr30sQjd2Cvnd5n-39" value="" style="endArrow=none;html=1;rounded=0;exitX=0.67;exitY=1;exitDx=0;exitDy=0;exitPerimeter=0;entryX=0.67;entryY=0;entryDx=0;entryDy=0;entryPerimeter=0;" edge="1" parent="1" source="FYtvYPr30sQjd2Cvnd5n-34" target="FYtvYPr30sQjd2Cvnd5n-34">
          <mxGeometry width="50" height="50" relative="1" as="geometry">
            <mxPoint x="371" y="320" as="sourcePoint" />
            <mxPoint x="421" y="270" as="targetPoint" />
          </mxGeometry>
        </mxCell>
        <mxCell id="FYtvYPr30sQjd2Cvnd5n-40" value="" style="endArrow=none;html=1;rounded=0;exitX=0.83;exitY=1;exitDx=0;exitDy=0;exitPerimeter=0;entryX=0.83;entryY=0;entryDx=0;entryDy=0;entryPerimeter=0;" edge="1" parent="1" source="FYtvYPr30sQjd2Cvnd5n-34" target="FYtvYPr30sQjd2Cvnd5n-34">
          <mxGeometry width="50" height="50" relative="1" as="geometry">
            <mxPoint x="371" y="320" as="sourcePoint" />
            <mxPoint x="421" y="270" as="targetPoint" />
          </mxGeometry>
        </mxCell>
        <mxCell id="FYtvYPr30sQjd2Cvnd5n-41" value="ACK" style="text;html=1;align=center;verticalAlign=middle;whiteSpace=wrap;rounded=0;" vertex="1" parent="1">
          <mxGeometry x="356" y="380" width="37" height="20" as="geometry" />
        </mxCell>
        <mxCell id="FYtvYPr30sQjd2Cvnd5n-42" value="PSH" style="text;html=1;align=center;verticalAlign=middle;whiteSpace=wrap;rounded=0;" vertex="1" parent="1">
          <mxGeometry x="395" y="381" width="37" height="20" as="geometry" />
        </mxCell>
        <mxCell id="FYtvYPr30sQjd2Cvnd5n-43" value="RST" style="text;html=1;align=center;verticalAlign=middle;whiteSpace=wrap;rounded=0;" vertex="1" parent="1">
          <mxGeometry x="435" y="381" width="37" height="20" as="geometry" />
        </mxCell>
        <mxCell id="FYtvYPr30sQjd2Cvnd5n-44" value="SYN" style="text;html=1;align=center;verticalAlign=middle;whiteSpace=wrap;rounded=0;" vertex="1" parent="1">
          <mxGeometry x="472.5" y="381" width="37" height="20" as="geometry" />
        </mxCell>
        <mxCell id="FYtvYPr30sQjd2Cvnd5n-45" value="FIN" style="text;html=1;align=center;verticalAlign=middle;whiteSpace=wrap;rounded=0;" vertex="1" parent="1">
          <mxGeometry x="514" y="380" width="37" height="20" as="geometry" />
        </mxCell>
        <mxCell id="FYtvYPr30sQjd2Cvnd5n-46" style="rounded=0;orthogonalLoop=1;jettySize=auto;html=1;exitX=0.38;exitY=1;exitDx=0;exitDy=0;exitPerimeter=0;entryX=0;entryY=0;entryDx=0;entryDy=0;entryPerimeter=0;" edge="1" parent="1" source="FYtvYPr30sQjd2Cvnd5n-9" target="FYtvYPr30sQjd2Cvnd5n-34">
          <mxGeometry relative="1" as="geometry" />
        </mxCell>
        <mxCell id="FYtvYPr30sQjd2Cvnd5n-47" style="rounded=0;orthogonalLoop=1;jettySize=auto;html=1;exitX=0.44;exitY=1;exitDx=0;exitDy=0;exitPerimeter=0;entryX=1;entryY=0;entryDx=0;entryDy=0;entryPerimeter=0;" edge="1" parent="1" source="FYtvYPr30sQjd2Cvnd5n-9" target="FYtvYPr30sQjd2Cvnd5n-34">
          <mxGeometry relative="1" as="geometry" />
        </mxCell>
        <mxCell id="FYtvYPr30sQjd2Cvnd5n-48" value="" style="endArrow=none;html=1;rounded=0;entryX=0.5;entryY=0;entryDx=0;entryDy=0;entryPerimeter=0;exitX=0.5;exitY=1;exitDx=0;exitDy=0;exitPerimeter=0;" edge="1" parent="1" source="FYtvYPr30sQjd2Cvnd5n-9" target="FYtvYPr30sQjd2Cvnd5n-9">
          <mxGeometry width="50" height="50" relative="1" as="geometry">
            <mxPoint x="420" y="320" as="sourcePoint" />
            <mxPoint x="470" y="270" as="targetPoint" />
          </mxGeometry>
        </mxCell>
        <mxCell id="FYtvYPr30sQjd2Cvnd5n-49" value="16&lt;span style=&quot;background-color: transparent; color: light-dark(rgb(0, 0, 0), rgb(255, 255, 255));&quot;&gt;bits&lt;/span&gt;" style="text;html=1;align=center;verticalAlign=middle;whiteSpace=wrap;rounded=0;" vertex="1" parent="1">
          <mxGeometry x="454" y="257" width="30" height="30" as="geometry" />
        </mxCell>
        <mxCell id="FYtvYPr30sQjd2Cvnd5n-50" value="窗口大小" style="text;html=1;align=center;verticalAlign=middle;whiteSpace=wrap;rounded=0;" vertex="1" parent="1">
          <mxGeometry x="439" y="219" width="60" height="30" as="geometry" />
        </mxCell>
        <mxCell id="FYtvYPr30sQjd2Cvnd5n-51" value="16&lt;span style=&quot;background-color: transparent; color: light-dark(rgb(0, 0, 0), rgb(255, 255, 255));&quot;&gt;bits&lt;/span&gt;" style="text;html=1;align=center;verticalAlign=middle;whiteSpace=wrap;rounded=0;" vertex="1" parent="1">
          <mxGeometry x="494" y="257" width="30" height="30" as="geometry" />
        </mxCell>
        <mxCell id="FYtvYPr30sQjd2Cvnd5n-52" value="" style="endArrow=none;html=1;rounded=0;entryX=0.56;entryY=0;entryDx=0;entryDy=0;entryPerimeter=0;exitX=0.56;exitY=1;exitDx=0;exitDy=0;exitPerimeter=0;" edge="1" parent="1" source="FYtvYPr30sQjd2Cvnd5n-9" target="FYtvYPr30sQjd2Cvnd5n-9">
          <mxGeometry width="50" height="50" relative="1" as="geometry">
            <mxPoint x="420" y="320" as="sourcePoint" />
            <mxPoint x="470" y="270" as="targetPoint" />
          </mxGeometry>
        </mxCell>
        <mxCell id="FYtvYPr30sQjd2Cvnd5n-53" value="校验和" style="text;html=1;align=center;verticalAlign=middle;whiteSpace=wrap;rounded=0;" vertex="1" parent="1">
          <mxGeometry x="489" y="297" width="40" height="20" as="geometry" />
        </mxCell>
        <mxCell id="FYtvYPr30sQjd2Cvnd5n-54" value="16&lt;span style=&quot;background-color: transparent; color: light-dark(rgb(0, 0, 0), rgb(255, 255, 255));&quot;&gt;bits&lt;/span&gt;" style="text;html=1;align=center;verticalAlign=middle;whiteSpace=wrap;rounded=0;" vertex="1" parent="1">
          <mxGeometry x="535" y="257" width="30" height="30" as="geometry" />
        </mxCell>
        <mxCell id="FYtvYPr30sQjd2Cvnd5n-55" value="" style="endArrow=none;html=1;rounded=0;entryX=0.63;entryY=0;entryDx=0;entryDy=0;entryPerimeter=0;exitX=0.63;exitY=1;exitDx=0;exitDy=0;exitPerimeter=0;" edge="1" parent="1" source="FYtvYPr30sQjd2Cvnd5n-9" target="FYtvYPr30sQjd2Cvnd5n-9">
          <mxGeometry width="50" height="50" relative="1" as="geometry">
            <mxPoint x="420" y="320" as="sourcePoint" />
            <mxPoint x="470" y="270" as="targetPoint" />
          </mxGeometry>
        </mxCell>
        <mxCell id="FYtvYPr30sQjd2Cvnd5n-56" value="紧急指针" style="text;html=1;align=center;verticalAlign=middle;whiteSpace=wrap;rounded=0;" vertex="1" parent="1">
          <mxGeometry x="524" y="223" width="59" height="24" as="geometry" />
        </mxCell>
        <mxCell id="FYtvYPr30sQjd2Cvnd5n-57" value="" style="endArrow=none;html=1;rounded=0;exitX=0.69;exitY=1;exitDx=0;exitDy=0;exitPerimeter=0;entryX=0.69;entryY=0;entryDx=0;entryDy=0;entryPerimeter=0;" edge="1" parent="1" source="FYtvYPr30sQjd2Cvnd5n-9" target="FYtvYPr30sQjd2Cvnd5n-9">
          <mxGeometry width="50" height="50" relative="1" as="geometry">
            <mxPoint x="420" y="320" as="sourcePoint" />
            <mxPoint x="470" y="270" as="targetPoint" />
          </mxGeometry>
        </mxCell>
        <mxCell id="FYtvYPr30sQjd2Cvnd5n-58" value="可变" style="text;html=1;align=center;verticalAlign=middle;whiteSpace=wrap;rounded=0;" vertex="1" parent="1">
          <mxGeometry x="573" y="256" width="40" height="30" as="geometry" />
        </mxCell>
        <mxCell id="FYtvYPr30sQjd2Cvnd5n-59" value="选项" style="text;html=1;align=center;verticalAlign=middle;whiteSpace=wrap;rounded=0;" vertex="1" parent="1">
          <mxGeometry x="579" y="292" width="28" height="30" as="geometry" />
        </mxCell>
        <mxCell id="FYtvYPr30sQjd2Cvnd5n-60" value="状态" style="text;html=1;align=center;verticalAlign=middle;whiteSpace=wrap;rounded=0;" vertex="1" parent="1">
          <mxGeometry x="419.25" y="297" width="28.5" height="30" as="geometry" />
        </mxCell>
        <mxCell id="FYtvYPr30sQjd2Cvnd5n-64" value="&lt;div&gt;SYN - 同步序列编号, 用于发起一个连接;&lt;/div&gt;&lt;div&gt;ACK - 确认, 接收方确认来自发送方的数据;&lt;/div&gt;&lt;div&gt;FIN - 结束, 释放一个连接;&lt;/div&gt;&lt;div&gt;RST - 重置, 用于重置一个连接;&lt;/div&gt;&lt;div&gt;PSH - 推送, 提示接受方应立即将缓冲区中的数据交给应用程序而不是等待更多数据到来后再一起处理&lt;/div&gt;URG - 紧急, 指示报文段中有紧急数据, 需要有限处理;&lt;div&gt;&lt;br&gt;&lt;/div&gt;" style="text;html=1;align=left;verticalAlign=middle;whiteSpace=wrap;rounded=0;" vertex="1" parent="1">
          <mxGeometry x="291" y="420" width="559" height="100" as="geometry" />
        </mxCell>
      </root>
    </mxGraphModel>
  </diagram>
  <diagram id="QsvqG0BKQHe00febNZIi" name="tcp-flow">
    <mxGraphModel dx="1222" dy="909" grid="1" gridSize="10" guides="1" tooltips="1" connect="1" arrows="1" fold="1" page="1" pageScale="1" pageWidth="850" pageHeight="1100" math="0" shadow="0">
      <root>
        <mxCell id="0" />
        <mxCell id="1" parent="0" />
        <mxCell id="ZS6wTgGq2yne608a9o58-59" value="" style="rounded=1;whiteSpace=wrap;html=1;fillColor=none;dashed=1;" vertex="1" parent="1">
          <mxGeometry x="90" y="410" width="640" height="140" as="geometry" />
        </mxCell>
        <mxCell id="ZS6wTgGq2yne608a9o58-57" value="" style="rounded=1;whiteSpace=wrap;html=1;fillColor=none;dashed=1;" vertex="1" parent="1">
          <mxGeometry x="90" y="557" width="640" height="416" as="geometry" />
        </mxCell>
        <mxCell id="ZS6wTgGq2yne608a9o58-22" value="" style="rounded=1;whiteSpace=wrap;html=1;fillColor=none;dashed=1;" vertex="1" parent="1">
          <mxGeometry x="90" y="50" width="640" height="350" as="geometry" />
        </mxCell>
        <mxCell id="ZS6wTgGq2yne608a9o58-8" style="edgeStyle=orthogonalEdgeStyle;rounded=0;orthogonalLoop=1;jettySize=auto;html=1;exitX=0.5;exitY=1;exitDx=0;exitDy=0;entryX=0.5;entryY=0;entryDx=0;entryDy=0;" edge="1" parent="1" source="ZS6wTgGq2yne608a9o58-1" target="ZS6wTgGq2yne608a9o58-4">
          <mxGeometry relative="1" as="geometry" />
        </mxCell>
        <mxCell id="ZS6wTgGq2yne608a9o58-1" value="CLOSED" style="rounded=1;whiteSpace=wrap;html=1;" vertex="1" parent="1">
          <mxGeometry x="180" y="90" width="110" height="30" as="geometry" />
        </mxCell>
        <mxCell id="ZS6wTgGq2yne608a9o58-10" style="edgeStyle=orthogonalEdgeStyle;rounded=0;orthogonalLoop=1;jettySize=auto;html=1;exitX=0.5;exitY=1;exitDx=0;exitDy=0;entryX=0.5;entryY=0;entryDx=0;entryDy=0;" edge="1" parent="1" source="ZS6wTgGq2yne608a9o58-2" target="ZS6wTgGq2yne608a9o58-9">
          <mxGeometry relative="1" as="geometry" />
        </mxCell>
        <mxCell id="ZS6wTgGq2yne608a9o58-2" value="LINSTEN" style="rounded=1;whiteSpace=wrap;html=1;" vertex="1" parent="1">
          <mxGeometry x="530" y="90" width="110" height="30" as="geometry" />
        </mxCell>
        <mxCell id="ZS6wTgGq2yne608a9o58-15" style="edgeStyle=orthogonalEdgeStyle;rounded=0;orthogonalLoop=1;jettySize=auto;html=1;exitX=0.5;exitY=1;exitDx=0;exitDy=0;entryX=0.5;entryY=0;entryDx=0;entryDy=0;" edge="1" parent="1" source="ZS6wTgGq2yne608a9o58-4" target="ZS6wTgGq2yne608a9o58-6">
          <mxGeometry relative="1" as="geometry" />
        </mxCell>
        <mxCell id="ZS6wTgGq2yne608a9o58-4" value="SYN-SEND" style="rounded=1;whiteSpace=wrap;html=1;" vertex="1" parent="1">
          <mxGeometry x="180" y="180" width="110" height="30" as="geometry" />
        </mxCell>
        <mxCell id="ZS6wTgGq2yne608a9o58-25" style="edgeStyle=orthogonalEdgeStyle;rounded=0;orthogonalLoop=1;jettySize=auto;html=1;exitX=0.5;exitY=1;exitDx=0;exitDy=0;entryX=0.5;entryY=0;entryDx=0;entryDy=0;" edge="1" parent="1" source="ZS6wTgGq2yne608a9o58-6" target="ZS6wTgGq2yne608a9o58-24">
          <mxGeometry relative="1" as="geometry" />
        </mxCell>
        <mxCell id="ZS6wTgGq2yne608a9o58-6" value="ESTABLISHED" style="rounded=1;whiteSpace=wrap;html=1;" vertex="1" parent="1">
          <mxGeometry x="180" y="340" width="110" height="30" as="geometry" />
        </mxCell>
        <mxCell id="ZS6wTgGq2yne608a9o58-17" style="edgeStyle=orthogonalEdgeStyle;rounded=0;orthogonalLoop=1;jettySize=auto;html=1;exitX=0.5;exitY=1;exitDx=0;exitDy=0;entryX=0.5;entryY=0;entryDx=0;entryDy=0;" edge="1" parent="1" source="ZS6wTgGq2yne608a9o58-9" target="ZS6wTgGq2yne608a9o58-16">
          <mxGeometry relative="1" as="geometry" />
        </mxCell>
        <mxCell id="ZS6wTgGq2yne608a9o58-9" value="SYN-RCVD" style="rounded=1;whiteSpace=wrap;html=1;" vertex="1" parent="1">
          <mxGeometry x="530" y="230" width="110" height="30" as="geometry" />
        </mxCell>
        <mxCell id="ZS6wTgGq2yne608a9o58-11" value="" style="endArrow=classic;html=1;rounded=0;" edge="1" parent="1">
          <mxGeometry width="50" height="50" relative="1" as="geometry">
            <mxPoint x="240" y="150" as="sourcePoint" />
            <mxPoint x="580" y="180" as="targetPoint" />
          </mxGeometry>
        </mxCell>
        <mxCell id="ZS6wTgGq2yne608a9o58-14" value="SYN" style="edgeLabel;html=1;align=center;verticalAlign=middle;resizable=0;points=[];fontColor=#00CC00;fontStyle=1" vertex="1" connectable="0" parent="ZS6wTgGq2yne608a9o58-11">
          <mxGeometry x="0.0101" y="3" relative="1" as="geometry">
            <mxPoint x="-4" y="2" as="offset" />
          </mxGeometry>
        </mxCell>
        <mxCell id="ZS6wTgGq2yne608a9o58-27" style="edgeStyle=orthogonalEdgeStyle;rounded=0;orthogonalLoop=1;jettySize=auto;html=1;exitX=0.5;exitY=1;exitDx=0;exitDy=0;entryX=0.5;entryY=0;entryDx=0;entryDy=0;" edge="1" parent="1" source="ZS6wTgGq2yne608a9o58-16" target="ZS6wTgGq2yne608a9o58-26">
          <mxGeometry relative="1" as="geometry" />
        </mxCell>
        <mxCell id="ZS6wTgGq2yne608a9o58-16" value="ESTABLISHED" style="rounded=1;whiteSpace=wrap;html=1;" vertex="1" parent="1">
          <mxGeometry x="530" y="340" width="110" height="30" as="geometry" />
        </mxCell>
        <mxCell id="ZS6wTgGq2yne608a9o58-18" value="" style="endArrow=classic;html=1;rounded=0;" edge="1" parent="1">
          <mxGeometry width="50" height="50" relative="1" as="geometry">
            <mxPoint x="580" y="190" as="sourcePoint" />
            <mxPoint x="240" y="270" as="targetPoint" />
          </mxGeometry>
        </mxCell>
        <mxCell id="ZS6wTgGq2yne608a9o58-19" value="SYN + ACK" style="edgeLabel;html=1;align=center;verticalAlign=middle;resizable=0;points=[];fontColor=#00CC00;fontStyle=1" vertex="1" connectable="0" parent="ZS6wTgGq2yne608a9o58-18">
          <mxGeometry x="0.0957" y="1" relative="1" as="geometry">
            <mxPoint as="offset" />
          </mxGeometry>
        </mxCell>
        <mxCell id="ZS6wTgGq2yne608a9o58-20" value="" style="endArrow=classic;html=1;rounded=0;" edge="1" parent="1">
          <mxGeometry width="50" height="50" relative="1" as="geometry">
            <mxPoint x="240" y="270" as="sourcePoint" />
            <mxPoint x="580" y="300" as="targetPoint" />
          </mxGeometry>
        </mxCell>
        <mxCell id="ZS6wTgGq2yne608a9o58-21" value="ACK" style="edgeLabel;html=1;align=center;verticalAlign=middle;resizable=0;points=[];fontColor=#00CC00;fontStyle=1" vertex="1" connectable="0" parent="ZS6wTgGq2yne608a9o58-20">
          <mxGeometry x="-0.0987" y="-2" relative="1" as="geometry">
            <mxPoint x="5" as="offset" />
          </mxGeometry>
        </mxCell>
        <mxCell id="ZS6wTgGq2yne608a9o58-23" value="&lt;b&gt;三&lt;/b&gt;&lt;div&gt;&lt;b&gt;次&lt;/b&gt;&lt;/div&gt;&lt;div&gt;&lt;b&gt;握&lt;/b&gt;&lt;/div&gt;&lt;div&gt;&lt;b&gt;手&lt;/b&gt;&lt;/div&gt;" style="text;html=1;align=center;verticalAlign=middle;whiteSpace=wrap;rounded=0;" vertex="1" parent="1">
          <mxGeometry x="100" y="190" width="30" height="70" as="geometry" />
        </mxCell>
        <mxCell id="ZS6wTgGq2yne608a9o58-32" style="edgeStyle=orthogonalEdgeStyle;rounded=0;orthogonalLoop=1;jettySize=auto;html=1;exitX=0.5;exitY=1;exitDx=0;exitDy=0;entryX=0.5;entryY=0;entryDx=0;entryDy=0;" edge="1" parent="1" source="ZS6wTgGq2yne608a9o58-24" target="ZS6wTgGq2yne608a9o58-28">
          <mxGeometry relative="1" as="geometry" />
        </mxCell>
        <mxCell id="ZS6wTgGq2yne608a9o58-24" value="FIN-WAIT-1" style="rounded=1;whiteSpace=wrap;html=1;" vertex="1" parent="1">
          <mxGeometry x="180" y="614" width="110" height="30" as="geometry" />
        </mxCell>
        <mxCell id="ZS6wTgGq2yne608a9o58-34" style="edgeStyle=orthogonalEdgeStyle;rounded=0;orthogonalLoop=1;jettySize=auto;html=1;exitX=0.5;exitY=1;exitDx=0;exitDy=0;entryX=0.5;entryY=0;entryDx=0;entryDy=0;" edge="1" parent="1" source="ZS6wTgGq2yne608a9o58-26" target="ZS6wTgGq2yne608a9o58-29">
          <mxGeometry relative="1" as="geometry" />
        </mxCell>
        <mxCell id="ZS6wTgGq2yne608a9o58-26" value="CLOSE-WAIT" style="rounded=1;whiteSpace=wrap;html=1;" vertex="1" parent="1">
          <mxGeometry x="530" y="724" width="110" height="30" as="geometry" />
        </mxCell>
        <mxCell id="ZS6wTgGq2yne608a9o58-33" style="edgeStyle=orthogonalEdgeStyle;rounded=0;orthogonalLoop=1;jettySize=auto;html=1;exitX=0.5;exitY=1;exitDx=0;exitDy=0;entryX=0.5;entryY=0;entryDx=0;entryDy=0;" edge="1" parent="1" source="ZS6wTgGq2yne608a9o58-28" target="ZS6wTgGq2yne608a9o58-31">
          <mxGeometry relative="1" as="geometry" />
        </mxCell>
        <mxCell id="ZS6wTgGq2yne608a9o58-28" value="FIN-WAIT-2" style="rounded=1;whiteSpace=wrap;html=1;" vertex="1" parent="1">
          <mxGeometry x="180" y="764" width="110" height="30" as="geometry" />
        </mxCell>
        <mxCell id="ZS6wTgGq2yne608a9o58-35" style="edgeStyle=orthogonalEdgeStyle;rounded=0;orthogonalLoop=1;jettySize=auto;html=1;exitX=0.5;exitY=1;exitDx=0;exitDy=0;entryX=0.5;entryY=0;entryDx=0;entryDy=0;" edge="1" parent="1" source="ZS6wTgGq2yne608a9o58-29" target="ZS6wTgGq2yne608a9o58-30">
          <mxGeometry relative="1" as="geometry" />
        </mxCell>
        <mxCell id="ZS6wTgGq2yne608a9o58-29" value="LAST-ACK" style="rounded=1;whiteSpace=wrap;html=1;" vertex="1" parent="1">
          <mxGeometry x="530" y="834" width="110" height="30" as="geometry" />
        </mxCell>
        <mxCell id="ZS6wTgGq2yne608a9o58-62" style="edgeStyle=orthogonalEdgeStyle;rounded=0;orthogonalLoop=1;jettySize=auto;html=1;exitX=0.5;exitY=1;exitDx=0;exitDy=0;entryX=0.5;entryY=0;entryDx=0;entryDy=0;" edge="1" parent="1" source="ZS6wTgGq2yne608a9o58-30" target="ZS6wTgGq2yne608a9o58-2">
          <mxGeometry relative="1" as="geometry">
            <Array as="points">
              <mxPoint x="585" y="964" />
              <mxPoint x="690" y="964" />
              <mxPoint x="690" y="70" />
              <mxPoint x="585" y="70" />
            </Array>
          </mxGeometry>
        </mxCell>
        <mxCell id="ZS6wTgGq2yne608a9o58-30" value="CLOSE" style="rounded=1;whiteSpace=wrap;html=1;" vertex="1" parent="1">
          <mxGeometry x="530" y="914" width="110" height="30" as="geometry" />
        </mxCell>
        <mxCell id="ZS6wTgGq2yne608a9o58-63" style="edgeStyle=orthogonalEdgeStyle;rounded=0;orthogonalLoop=1;jettySize=auto;html=1;exitX=0.5;exitY=1;exitDx=0;exitDy=0;entryX=0.5;entryY=0;entryDx=0;entryDy=0;" edge="1" parent="1" source="ZS6wTgGq2yne608a9o58-31" target="ZS6wTgGq2yne608a9o58-1">
          <mxGeometry relative="1" as="geometry">
            <Array as="points">
              <mxPoint x="235" y="964" />
              <mxPoint x="150" y="964" />
              <mxPoint x="150" y="70" />
              <mxPoint x="235" y="70" />
            </Array>
          </mxGeometry>
        </mxCell>
        <mxCell id="ZS6wTgGq2yne608a9o58-31" value="TIME-WAIT" style="rounded=1;whiteSpace=wrap;html=1;" vertex="1" parent="1">
          <mxGeometry x="180" y="914" width="110" height="30" as="geometry" />
        </mxCell>
        <mxCell id="ZS6wTgGq2yne608a9o58-36" value="" style="endArrow=classic;html=1;rounded=0;" edge="1" parent="1">
          <mxGeometry width="50" height="50" relative="1" as="geometry">
            <mxPoint x="240" y="420" as="sourcePoint" />
            <mxPoint x="580" y="450" as="targetPoint" />
          </mxGeometry>
        </mxCell>
        <mxCell id="ZS6wTgGq2yne608a9o58-37" value="DATA" style="edgeLabel;html=1;align=center;verticalAlign=middle;resizable=0;points=[];" vertex="1" connectable="0" parent="ZS6wTgGq2yne608a9o58-36">
          <mxGeometry x="-0.0997" relative="1" as="geometry">
            <mxPoint as="offset" />
          </mxGeometry>
        </mxCell>
        <mxCell id="ZS6wTgGq2yne608a9o58-38" value="" style="endArrow=classic;html=1;rounded=0;" edge="1" parent="1">
          <mxGeometry width="50" height="50" relative="1" as="geometry">
            <mxPoint x="241" y="460" as="sourcePoint" />
            <mxPoint x="581" y="490" as="targetPoint" />
          </mxGeometry>
        </mxCell>
        <mxCell id="ZS6wTgGq2yne608a9o58-39" value="DATA" style="edgeLabel;html=1;align=center;verticalAlign=middle;resizable=0;points=[];" vertex="1" connectable="0" parent="ZS6wTgGq2yne608a9o58-38">
          <mxGeometry x="-0.0997" relative="1" as="geometry">
            <mxPoint as="offset" />
          </mxGeometry>
        </mxCell>
        <mxCell id="ZS6wTgGq2yne608a9o58-40" value="... ..." style="text;html=1;align=center;verticalAlign=middle;whiteSpace=wrap;rounded=0;fontStyle=1" vertex="1" parent="1">
          <mxGeometry x="365" y="432" width="60" height="30" as="geometry" />
        </mxCell>
        <mxCell id="ZS6wTgGq2yne608a9o58-41" value="" style="endArrow=classic;html=1;rounded=0;" edge="1" parent="1">
          <mxGeometry width="50" height="50" relative="1" as="geometry">
            <mxPoint x="570" y="520" as="sourcePoint" />
            <mxPoint x="250" y="540" as="targetPoint" />
          </mxGeometry>
        </mxCell>
        <mxCell id="ZS6wTgGq2yne608a9o58-42" value="DATA" style="edgeLabel;html=1;align=center;verticalAlign=middle;resizable=0;points=[];" vertex="1" connectable="0" parent="ZS6wTgGq2yne608a9o58-41">
          <mxGeometry x="0.1074" y="3" relative="1" as="geometry">
            <mxPoint y="-3" as="offset" />
          </mxGeometry>
        </mxCell>
        <mxCell id="ZS6wTgGq2yne608a9o58-43" value="... ..." style="text;html=1;align=center;verticalAlign=middle;whiteSpace=wrap;rounded=0;fontStyle=1" vertex="1" parent="1">
          <mxGeometry x="365" y="527" width="60" height="30" as="geometry" />
        </mxCell>
        <mxCell id="ZS6wTgGq2yne608a9o58-44" value="" style="endArrow=classic;html=1;rounded=0;" edge="1" parent="1">
          <mxGeometry width="50" height="50" relative="1" as="geometry">
            <mxPoint x="250" y="570" as="sourcePoint" />
            <mxPoint x="580" y="620" as="targetPoint" />
          </mxGeometry>
        </mxCell>
        <mxCell id="ZS6wTgGq2yne608a9o58-45" value="FIN" style="edgeLabel;html=1;align=center;verticalAlign=middle;resizable=0;points=[];fontColor=#0000FF;fontStyle=1" vertex="1" connectable="0" parent="ZS6wTgGq2yne608a9o58-44">
          <mxGeometry x="-0.1639" y="1" relative="1" as="geometry">
            <mxPoint x="19" y="5" as="offset" />
          </mxGeometry>
        </mxCell>
        <mxCell id="ZS6wTgGq2yne608a9o58-46" value="" style="endArrow=classic;html=1;rounded=0;" edge="1" parent="1">
          <mxGeometry width="50" height="50" relative="1" as="geometry">
            <mxPoint x="580" y="640" as="sourcePoint" />
            <mxPoint x="240" y="680" as="targetPoint" />
          </mxGeometry>
        </mxCell>
        <mxCell id="ZS6wTgGq2yne608a9o58-47" value="DATA" style="edgeLabel;html=1;align=center;verticalAlign=middle;resizable=0;points=[];" vertex="1" connectable="0" parent="ZS6wTgGq2yne608a9o58-46">
          <mxGeometry x="0.0877" y="-1" relative="1" as="geometry">
            <mxPoint x="2" as="offset" />
          </mxGeometry>
        </mxCell>
        <mxCell id="ZS6wTgGq2yne608a9o58-48" value="" style="endArrow=classic;html=1;rounded=0;" edge="1" parent="1">
          <mxGeometry width="50" height="50" relative="1" as="geometry">
            <mxPoint x="580" y="670" as="sourcePoint" />
            <mxPoint x="240" y="720" as="targetPoint" />
          </mxGeometry>
        </mxCell>
        <mxCell id="ZS6wTgGq2yne608a9o58-49" value="ACK" style="edgeLabel;html=1;align=center;verticalAlign=middle;resizable=0;points=[];fontColor=#0000FF;fontStyle=1" vertex="1" connectable="0" parent="ZS6wTgGq2yne608a9o58-48">
          <mxGeometry x="0.0749" y="-2" relative="1" as="geometry">
            <mxPoint as="offset" />
          </mxGeometry>
        </mxCell>
        <mxCell id="ZS6wTgGq2yne608a9o58-50" value="" style="endArrow=classic;html=1;rounded=0;" edge="1" parent="1">
          <mxGeometry width="50" height="50" relative="1" as="geometry">
            <mxPoint x="580" y="770" as="sourcePoint" />
            <mxPoint x="240" y="830" as="targetPoint" />
          </mxGeometry>
        </mxCell>
        <mxCell id="ZS6wTgGq2yne608a9o58-51" value="FIN+ACK" style="edgeLabel;html=1;align=center;verticalAlign=middle;resizable=0;points=[];fontColor=#0000FF;fontStyle=1" vertex="1" connectable="0" parent="ZS6wTgGq2yne608a9o58-50">
          <mxGeometry x="0.055" y="-4" relative="1" as="geometry">
            <mxPoint y="3" as="offset" />
          </mxGeometry>
        </mxCell>
        <mxCell id="ZS6wTgGq2yne608a9o58-52" value="" style="endArrow=classic;html=1;rounded=0;" edge="1" parent="1">
          <mxGeometry width="50" height="50" relative="1" as="geometry">
            <mxPoint x="245" y="840" as="sourcePoint" />
            <mxPoint x="575" y="890" as="targetPoint" />
          </mxGeometry>
        </mxCell>
        <mxCell id="ZS6wTgGq2yne608a9o58-56" value="ACK" style="edgeLabel;html=1;align=center;verticalAlign=middle;resizable=0;points=[];fontColor=#0000FF;fontStyle=1" vertex="1" connectable="0" parent="ZS6wTgGq2yne608a9o58-52">
          <mxGeometry x="-0.0524" y="-2" relative="1" as="geometry">
            <mxPoint as="offset" />
          </mxGeometry>
        </mxCell>
        <mxCell id="ZS6wTgGq2yne608a9o58-58" value="四&lt;div&gt;次&lt;/div&gt;&lt;div&gt;挥&lt;/div&gt;&lt;div&gt;手&lt;/div&gt;" style="text;html=1;align=center;verticalAlign=middle;whiteSpace=wrap;rounded=0;fontStyle=1;horizontal=1;" vertex="1" parent="1">
          <mxGeometry x="100" y="720" width="23" height="70" as="geometry" />
        </mxCell>
        <mxCell id="ZS6wTgGq2yne608a9o58-60" value="数&lt;div&gt;据&lt;/div&gt;&lt;div&gt;传&lt;/div&gt;&lt;div&gt;输&lt;/div&gt;" style="text;html=1;align=center;verticalAlign=middle;whiteSpace=wrap;rounded=0;fontStyle=1" vertex="1" parent="1">
          <mxGeometry x="100" y="444" width="30" height="72" as="geometry" />
        </mxCell>
      </root>
    </mxGraphModel>
  </diagram>
  <diagram id="1ZgCI9HZxN0Ba2fB1jP2" name="HTTP">
    <mxGraphModel dx="1477" dy="847" grid="1" gridSize="10" guides="1" tooltips="1" connect="1" arrows="1" fold="1" page="0" pageScale="1" pageWidth="850" pageHeight="1100" math="0" shadow="0">
      <root>
        <mxCell id="0" />
        <mxCell id="1" parent="0" />
        <mxCell id="zRfPieL8wmTyY9ZyIWt0-53" value="" style="rounded=0;whiteSpace=wrap;html=1;fillColor=#fff2cc;strokeColor=#d6b656;" vertex="1" parent="1">
          <mxGeometry x="45" y="538" width="815" height="372" as="geometry" />
        </mxCell>
        <mxCell id="zRfPieL8wmTyY9ZyIWt0-52" value="" style="rounded=0;whiteSpace=wrap;html=1;fillColor=#dae8fc;strokeColor=#6c8ebf;" vertex="1" parent="1">
          <mxGeometry x="45" y="163" width="815" height="367" as="geometry" />
        </mxCell>
        <mxCell id="wFBfc0lkLgVUx-TxglD4-1" value="" style="rounded=0;whiteSpace=wrap;html=1;points=[[0,0,0,0,0],[0,0.25,0,0,0],[0,0.5,0,0,0],[0,0.75,0,0,0],[0,1,0,0,0],[0.06,0,0,0,0],[0.06,1,0,0,0],[0.13,0,0,0,0],[0.13,1,0,0,0],[0.19,0,0,0,0],[0.19,1,0,0,0],[0.25,0,0,0,0],[0.25,1,0,0,0],[0.31,0,0,0,0],[0.31,1,0,0,0],[0.38,0,0,0,0],[0.38,1,0,0,0],[0.44,0,0,0,0],[0.44,1,0,0,0],[0.5,0,0,0,0],[0.5,1,0,0,0],[0.56,0,0,0,0],[0.56,1,0,0,0],[0.63,0,0,0,0],[0.63,1,0,0,0],[0.69,0,0,0,0],[0.69,1,0,0,0],[0.75,0,0,0,0],[0.75,1,0,0,0],[0.81,0,0,0,0],[0.81,1,0,0,0],[0.88,0,0,0,0],[0.88,1,0,0,0],[0.94,0,0,0,0],[0.94,1,0,0,0],[1,0,0,0,0],[1,0.25,0,0,0],[1,0.5,0,0,0],[1,0.75,0,0,0],[1,1,0,0,0]];" vertex="1" parent="1">
          <mxGeometry x="150" y="558" width="690" height="40" as="geometry" />
        </mxCell>
        <mxCell id="wFBfc0lkLgVUx-TxglD4-4" value="版本" style="text;html=1;align=center;verticalAlign=middle;whiteSpace=wrap;rounded=0;" vertex="1" parent="1">
          <mxGeometry x="200" y="563" width="60" height="30" as="geometry" />
        </mxCell>
        <mxCell id="wFBfc0lkLgVUx-TxglD4-6" value="空" style="text;html=1;align=center;verticalAlign=middle;whiteSpace=wrap;rounded=0;" vertex="1" parent="1">
          <mxGeometry x="327" y="563" width="30" height="30" as="geometry" />
        </mxCell>
        <mxCell id="wFBfc0lkLgVUx-TxglD4-8" value="状态码" style="text;html=1;align=center;verticalAlign=middle;whiteSpace=wrap;rounded=0;" vertex="1" parent="1">
          <mxGeometry x="395" y="563" width="60" height="30" as="geometry" />
        </mxCell>
        <mxCell id="wFBfc0lkLgVUx-TxglD4-10" value="空" style="text;html=1;align=center;verticalAlign=middle;whiteSpace=wrap;rounded=0;" vertex="1" parent="1">
          <mxGeometry x="500" y="563" width="30" height="30" as="geometry" />
        </mxCell>
        <mxCell id="wFBfc0lkLgVUx-TxglD4-11" value="短语" style="text;html=1;align=center;verticalAlign=middle;whiteSpace=wrap;rounded=0;" vertex="1" parent="1">
          <mxGeometry x="630" y="563" width="60" height="30" as="geometry" />
        </mxCell>
        <mxCell id="wFBfc0lkLgVUx-TxglD4-13" value="" style="endArrow=none;html=1;rounded=0;entryX=0.94;entryY=0;entryDx=0;entryDy=0;entryPerimeter=0;exitX=0.94;exitY=1;exitDx=0;exitDy=0;exitPerimeter=0;" edge="1" parent="1" source="wFBfc0lkLgVUx-TxglD4-1" target="wFBfc0lkLgVUx-TxglD4-1">
          <mxGeometry width="50" height="50" relative="1" as="geometry">
            <mxPoint x="510" y="718" as="sourcePoint" />
            <mxPoint x="560" y="668" as="targetPoint" />
          </mxGeometry>
        </mxCell>
        <mxCell id="wFBfc0lkLgVUx-TxglD4-14" value="\n" style="text;html=1;align=center;verticalAlign=middle;whiteSpace=wrap;rounded=0;" vertex="1" parent="1">
          <mxGeometry x="810" y="563" width="20" height="30" as="geometry" />
        </mxCell>
        <mxCell id="wFBfc0lkLgVUx-TxglD4-15" value="" style="endArrow=none;html=1;rounded=0;entryX=0.88;entryY=0;entryDx=0;entryDy=0;entryPerimeter=0;exitX=0.88;exitY=1;exitDx=0;exitDy=0;exitPerimeter=0;" edge="1" parent="1" source="wFBfc0lkLgVUx-TxglD4-1" target="wFBfc0lkLgVUx-TxglD4-1">
          <mxGeometry width="50" height="50" relative="1" as="geometry">
            <mxPoint x="510" y="718" as="sourcePoint" />
            <mxPoint x="560" y="668" as="targetPoint" />
          </mxGeometry>
        </mxCell>
        <mxCell id="wFBfc0lkLgVUx-TxglD4-16" value="\r" style="text;html=1;align=center;verticalAlign=middle;whiteSpace=wrap;rounded=0;" vertex="1" parent="1">
          <mxGeometry x="770" y="563" width="20" height="30" as="geometry" />
        </mxCell>
        <mxCell id="wFBfc0lkLgVUx-TxglD4-17" value="" style="endArrow=none;html=1;rounded=0;entryX=0.56;entryY=0;entryDx=0;entryDy=0;entryPerimeter=0;exitX=0.56;exitY=1;exitDx=0;exitDy=0;exitPerimeter=0;" edge="1" parent="1" source="wFBfc0lkLgVUx-TxglD4-1" target="wFBfc0lkLgVUx-TxglD4-1">
          <mxGeometry width="50" height="50" relative="1" as="geometry">
            <mxPoint x="510" y="718" as="sourcePoint" />
            <mxPoint x="560" y="668" as="targetPoint" />
          </mxGeometry>
        </mxCell>
        <mxCell id="wFBfc0lkLgVUx-TxglD4-18" value="" style="endArrow=none;html=1;rounded=0;entryX=0.5;entryY=0;entryDx=0;entryDy=0;entryPerimeter=0;exitX=0.5;exitY=1;exitDx=0;exitDy=0;exitPerimeter=0;" edge="1" parent="1" source="wFBfc0lkLgVUx-TxglD4-1" target="wFBfc0lkLgVUx-TxglD4-1">
          <mxGeometry width="50" height="50" relative="1" as="geometry">
            <mxPoint x="510" y="718" as="sourcePoint" />
            <mxPoint x="560" y="668" as="targetPoint" />
          </mxGeometry>
        </mxCell>
        <mxCell id="wFBfc0lkLgVUx-TxglD4-19" value="" style="endArrow=none;html=1;rounded=0;entryX=0.31;entryY=0;entryDx=0;entryDy=0;entryPerimeter=0;exitX=0.31;exitY=1;exitDx=0;exitDy=0;exitPerimeter=0;" edge="1" parent="1" source="wFBfc0lkLgVUx-TxglD4-1" target="wFBfc0lkLgVUx-TxglD4-1">
          <mxGeometry width="50" height="50" relative="1" as="geometry">
            <mxPoint x="510" y="718" as="sourcePoint" />
            <mxPoint x="560" y="668" as="targetPoint" />
          </mxGeometry>
        </mxCell>
        <mxCell id="wFBfc0lkLgVUx-TxglD4-20" value="" style="endArrow=none;html=1;rounded=0;entryX=0.25;entryY=0;entryDx=0;entryDy=0;entryPerimeter=0;exitX=0.25;exitY=1;exitDx=0;exitDy=0;exitPerimeter=0;" edge="1" parent="1" source="wFBfc0lkLgVUx-TxglD4-1" target="wFBfc0lkLgVUx-TxglD4-1">
          <mxGeometry width="50" height="50" relative="1" as="geometry">
            <mxPoint x="510" y="718" as="sourcePoint" />
            <mxPoint x="560" y="668" as="targetPoint" />
          </mxGeometry>
        </mxCell>
        <mxCell id="wFBfc0lkLgVUx-TxglD4-21" value="状态行:" style="text;html=1;align=center;verticalAlign=middle;whiteSpace=wrap;rounded=0;fontStyle=1" vertex="1" parent="1">
          <mxGeometry x="60" y="563" width="60" height="30" as="geometry" />
        </mxCell>
        <mxCell id="wFBfc0lkLgVUx-TxglD4-22" value="" style="rounded=0;whiteSpace=wrap;html=1;points=[[0,0,0,0,0],[0,0.25,0,0,0],[0,0.5,0,0,0],[0,0.75,0,0,0],[0,1,0,0,0],[0.06,0,0,0,0],[0.06,1,0,0,0],[0.13,0,0,0,0],[0.13,1,0,0,0],[0.19,0,0,0,0],[0.19,1,0,0,0],[0.25,0,0,0,0],[0.25,1,0,0,0],[0.31,0,0,0,0],[0.31,1,0,0,0],[0.38,0,0,0,0],[0.38,1,0,0,0],[0.44,0,0,0,0],[0.44,1,0,0,0],[0.5,0,0,0,0],[0.5,1,0,0,0],[0.56,0,0,0,0],[0.56,1,0,0,0],[0.63,0,0,0,0],[0.63,1,0,0,0],[0.69,0,0,0,0],[0.69,1,0,0,0],[0.75,0,0,0,0],[0.75,1,0,0,0],[0.81,0,0,0,0],[0.81,1,0,0,0],[0.88,0,0,0,0],[0.88,1,0,0,0],[0.94,0,0,0,0],[0.94,1,0,0,0],[1,0,0,0,0],[1,0.25,0,0,0],[1,0.5,0,0,0],[1,0.75,0,0,0],[1,1,0,0,0]];" vertex="1" parent="1">
          <mxGeometry x="150" y="618" width="600" height="40" as="geometry" />
        </mxCell>
        <mxCell id="wFBfc0lkLgVUx-TxglD4-26" value="" style="endArrow=none;html=1;rounded=0;entryX=0.94;entryY=0;entryDx=0;entryDy=0;entryPerimeter=0;exitX=0.94;exitY=1;exitDx=0;exitDy=0;exitPerimeter=0;" edge="1" parent="1" source="wFBfc0lkLgVUx-TxglD4-22" target="wFBfc0lkLgVUx-TxglD4-22">
          <mxGeometry width="50" height="50" relative="1" as="geometry">
            <mxPoint x="440" y="728" as="sourcePoint" />
            <mxPoint x="490" y="678" as="targetPoint" />
          </mxGeometry>
        </mxCell>
        <mxCell id="wFBfc0lkLgVUx-TxglD4-27" value="\n" style="text;html=1;align=center;verticalAlign=middle;whiteSpace=wrap;rounded=0;" vertex="1" parent="1">
          <mxGeometry x="720" y="623" width="20" height="30" as="geometry" />
        </mxCell>
        <mxCell id="wFBfc0lkLgVUx-TxglD4-28" value="" style="endArrow=none;html=1;rounded=0;entryX=0.88;entryY=0;entryDx=0;entryDy=0;entryPerimeter=0;exitX=0.88;exitY=1;exitDx=0;exitDy=0;exitPerimeter=0;" edge="1" parent="1" source="wFBfc0lkLgVUx-TxglD4-22" target="wFBfc0lkLgVUx-TxglD4-22">
          <mxGeometry width="50" height="50" relative="1" as="geometry">
            <mxPoint x="440" y="728" as="sourcePoint" />
            <mxPoint x="490" y="678" as="targetPoint" />
          </mxGeometry>
        </mxCell>
        <mxCell id="wFBfc0lkLgVUx-TxglD4-29" value="\r" style="text;html=1;align=center;verticalAlign=middle;whiteSpace=wrap;rounded=0;" vertex="1" parent="1">
          <mxGeometry x="686" y="623" width="20" height="30" as="geometry" />
        </mxCell>
        <mxCell id="wFBfc0lkLgVUx-TxglD4-30" value="" style="endArrow=none;html=1;rounded=0;entryX=0.38;entryY=0;entryDx=0;entryDy=0;entryPerimeter=0;exitX=0.38;exitY=1;exitDx=0;exitDy=0;exitPerimeter=0;" edge="1" parent="1" source="wFBfc0lkLgVUx-TxglD4-22" target="wFBfc0lkLgVUx-TxglD4-22">
          <mxGeometry width="50" height="50" relative="1" as="geometry">
            <mxPoint x="440" y="728" as="sourcePoint" />
            <mxPoint x="490" y="678" as="targetPoint" />
          </mxGeometry>
        </mxCell>
        <mxCell id="wFBfc0lkLgVUx-TxglD4-31" value="" style="endArrow=none;html=1;rounded=0;entryX=0.44;entryY=0;entryDx=0;entryDy=0;entryPerimeter=0;exitX=0.44;exitY=1;exitDx=0;exitDy=0;exitPerimeter=0;" edge="1" parent="1" source="wFBfc0lkLgVUx-TxglD4-22" target="wFBfc0lkLgVUx-TxglD4-22">
          <mxGeometry width="50" height="50" relative="1" as="geometry">
            <mxPoint x="440" y="728" as="sourcePoint" />
            <mxPoint x="490" y="678" as="targetPoint" />
          </mxGeometry>
        </mxCell>
        <mxCell id="wFBfc0lkLgVUx-TxglD4-32" value="空" style="text;html=1;align=center;verticalAlign=middle;whiteSpace=wrap;rounded=0;" vertex="1" parent="1">
          <mxGeometry x="381" y="623" width="30" height="30" as="geometry" />
        </mxCell>
        <mxCell id="wFBfc0lkLgVUx-TxglD4-33" value="字段名" style="text;html=1;align=center;verticalAlign=middle;whiteSpace=wrap;rounded=0;" vertex="1" parent="1">
          <mxGeometry x="230" y="623" width="60" height="30" as="geometry" />
        </mxCell>
        <mxCell id="wFBfc0lkLgVUx-TxglD4-34" value="字段值" style="text;html=1;align=center;verticalAlign=middle;whiteSpace=wrap;rounded=0;" vertex="1" parent="1">
          <mxGeometry x="510" y="623" width="60" height="30" as="geometry" />
        </mxCell>
        <mxCell id="wFBfc0lkLgVUx-TxglD4-35" value="响应头:" style="text;html=1;align=center;verticalAlign=middle;whiteSpace=wrap;rounded=0;fontStyle=1" vertex="1" parent="1">
          <mxGeometry x="50" y="664" width="80" height="30" as="geometry" />
        </mxCell>
        <mxCell id="wFBfc0lkLgVUx-TxglD4-36" value="... ..." style="text;html=1;align=center;verticalAlign=middle;whiteSpace=wrap;rounded=0;fontStyle=1" vertex="1" parent="1">
          <mxGeometry x="170" y="664" width="60" height="30" as="geometry" />
        </mxCell>
        <mxCell id="wFBfc0lkLgVUx-TxglD4-37" value="" style="rounded=0;whiteSpace=wrap;html=1;points=[[0,0,0,0,0],[0,0.25,0,0,0],[0,0.5,0,0,0],[0,0.75,0,0,0],[0,1,0,0,0],[0.06,0,0,0,0],[0.06,1,0,0,0],[0.13,0,0,0,0],[0.13,1,0,0,0],[0.19,0,0,0,0],[0.19,1,0,0,0],[0.25,0,0,0,0],[0.25,1,0,0,0],[0.31,0,0,0,0],[0.31,1,0,0,0],[0.38,0,0,0,0],[0.38,1,0,0,0],[0.44,0,0,0,0],[0.44,1,0,0,0],[0.5,0,0,0,0],[0.5,1,0,0,0],[0.56,0,0,0,0],[0.56,1,0,0,0],[0.63,0,0,0,0],[0.63,1,0,0,0],[0.69,0,0,0,0],[0.69,1,0,0,0],[0.75,0,0,0,0],[0.75,1,0,0,0],[0.81,0,0,0,0],[0.81,1,0,0,0],[0.88,0,0,0,0],[0.88,1,0,0,0],[0.94,0,0,0,0],[0.94,1,0,0,0],[1,0,0,0,0],[1,0.25,0,0,0],[1,0.5,0,0,0],[1,0.75,0,0,0],[1,1,0,0,0]];" vertex="1" parent="1">
          <mxGeometry x="150" y="714" width="600" height="40" as="geometry" />
        </mxCell>
        <mxCell id="wFBfc0lkLgVUx-TxglD4-38" value="" style="endArrow=none;html=1;rounded=0;entryX=0.94;entryY=0;entryDx=0;entryDy=0;entryPerimeter=0;exitX=0.94;exitY=1;exitDx=0;exitDy=0;exitPerimeter=0;" edge="1" parent="1" source="wFBfc0lkLgVUx-TxglD4-37" target="wFBfc0lkLgVUx-TxglD4-37">
          <mxGeometry width="50" height="50" relative="1" as="geometry">
            <mxPoint x="440" y="824" as="sourcePoint" />
            <mxPoint x="490" y="774" as="targetPoint" />
          </mxGeometry>
        </mxCell>
        <mxCell id="wFBfc0lkLgVUx-TxglD4-39" value="\n" style="text;html=1;align=center;verticalAlign=middle;whiteSpace=wrap;rounded=0;" vertex="1" parent="1">
          <mxGeometry x="720" y="719" width="20" height="30" as="geometry" />
        </mxCell>
        <mxCell id="wFBfc0lkLgVUx-TxglD4-40" value="" style="endArrow=none;html=1;rounded=0;entryX=0.88;entryY=0;entryDx=0;entryDy=0;entryPerimeter=0;exitX=0.88;exitY=1;exitDx=0;exitDy=0;exitPerimeter=0;" edge="1" parent="1" source="wFBfc0lkLgVUx-TxglD4-37" target="wFBfc0lkLgVUx-TxglD4-37">
          <mxGeometry width="50" height="50" relative="1" as="geometry">
            <mxPoint x="440" y="824" as="sourcePoint" />
            <mxPoint x="490" y="774" as="targetPoint" />
          </mxGeometry>
        </mxCell>
        <mxCell id="wFBfc0lkLgVUx-TxglD4-41" value="\r" style="text;html=1;align=center;verticalAlign=middle;whiteSpace=wrap;rounded=0;" vertex="1" parent="1">
          <mxGeometry x="686" y="719" width="20" height="30" as="geometry" />
        </mxCell>
        <mxCell id="wFBfc0lkLgVUx-TxglD4-42" value="" style="endArrow=none;html=1;rounded=0;entryX=0.38;entryY=0;entryDx=0;entryDy=0;entryPerimeter=0;exitX=0.38;exitY=1;exitDx=0;exitDy=0;exitPerimeter=0;" edge="1" parent="1" source="wFBfc0lkLgVUx-TxglD4-37" target="wFBfc0lkLgVUx-TxglD4-37">
          <mxGeometry width="50" height="50" relative="1" as="geometry">
            <mxPoint x="440" y="824" as="sourcePoint" />
            <mxPoint x="490" y="774" as="targetPoint" />
          </mxGeometry>
        </mxCell>
        <mxCell id="wFBfc0lkLgVUx-TxglD4-43" value="" style="endArrow=none;html=1;rounded=0;entryX=0.44;entryY=0;entryDx=0;entryDy=0;entryPerimeter=0;exitX=0.44;exitY=1;exitDx=0;exitDy=0;exitPerimeter=0;" edge="1" parent="1" source="wFBfc0lkLgVUx-TxglD4-37" target="wFBfc0lkLgVUx-TxglD4-37">
          <mxGeometry width="50" height="50" relative="1" as="geometry">
            <mxPoint x="440" y="824" as="sourcePoint" />
            <mxPoint x="490" y="774" as="targetPoint" />
          </mxGeometry>
        </mxCell>
        <mxCell id="wFBfc0lkLgVUx-TxglD4-44" value="空" style="text;html=1;align=center;verticalAlign=middle;whiteSpace=wrap;rounded=0;" vertex="1" parent="1">
          <mxGeometry x="381" y="719" width="30" height="30" as="geometry" />
        </mxCell>
        <mxCell id="wFBfc0lkLgVUx-TxglD4-45" value="字段名" style="text;html=1;align=center;verticalAlign=middle;whiteSpace=wrap;rounded=0;" vertex="1" parent="1">
          <mxGeometry x="230" y="719" width="60" height="30" as="geometry" />
        </mxCell>
        <mxCell id="wFBfc0lkLgVUx-TxglD4-46" value="字段值" style="text;html=1;align=center;verticalAlign=middle;whiteSpace=wrap;rounded=0;" vertex="1" parent="1">
          <mxGeometry x="510" y="719" width="60" height="30" as="geometry" />
        </mxCell>
        <mxCell id="wFBfc0lkLgVUx-TxglD4-47" value="" style="shape=curlyBracket;whiteSpace=wrap;html=1;rounded=1;labelPosition=left;verticalLabelPosition=middle;align=right;verticalAlign=middle;" vertex="1" parent="1">
          <mxGeometry x="120" y="623" width="20" height="120" as="geometry" />
        </mxCell>
        <mxCell id="wFBfc0lkLgVUx-TxglD4-48" value="" style="rounded=0;whiteSpace=wrap;html=1;" vertex="1" parent="1">
          <mxGeometry x="150" y="778" width="80" height="40" as="geometry" />
        </mxCell>
        <mxCell id="wFBfc0lkLgVUx-TxglD4-49" value="" style="endArrow=none;html=1;rounded=0;entryX=0.5;entryY=0;entryDx=0;entryDy=0;exitX=0.5;exitY=1;exitDx=0;exitDy=0;" edge="1" parent="1" source="wFBfc0lkLgVUx-TxglD4-48" target="wFBfc0lkLgVUx-TxglD4-48">
          <mxGeometry width="50" height="50" relative="1" as="geometry">
            <mxPoint x="190" y="838" as="sourcePoint" />
            <mxPoint x="240" y="788" as="targetPoint" />
          </mxGeometry>
        </mxCell>
        <mxCell id="wFBfc0lkLgVUx-TxglD4-50" value="\r" style="text;html=1;align=center;verticalAlign=middle;whiteSpace=wrap;rounded=0;" vertex="1" parent="1">
          <mxGeometry x="160" y="783" width="20" height="30" as="geometry" />
        </mxCell>
        <mxCell id="wFBfc0lkLgVUx-TxglD4-51" value="\n" style="text;html=1;align=center;verticalAlign=middle;whiteSpace=wrap;rounded=0;" vertex="1" parent="1">
          <mxGeometry x="200" y="783" width="20" height="30" as="geometry" />
        </mxCell>
        <mxCell id="wFBfc0lkLgVUx-TxglD4-52" value="" style="rounded=0;whiteSpace=wrap;html=1;" vertex="1" parent="1">
          <mxGeometry x="150" y="838" width="600" height="40" as="geometry" />
        </mxCell>
        <mxCell id="wFBfc0lkLgVUx-TxglD4-54" value="响应体:" style="text;html=1;align=center;verticalAlign=middle;whiteSpace=wrap;rounded=0;fontStyle=1" vertex="1" parent="1">
          <mxGeometry x="55" y="843" width="70" height="30" as="geometry" />
        </mxCell>
        <mxCell id="65jc5dQRBd3O6GIBtG7y-1" value="" style="rounded=0;whiteSpace=wrap;html=1;points=[[0,0,0,0,0],[0,0.25,0,0,0],[0,0.5,0,0,0],[0,0.75,0,0,0],[0,1,0,0,0],[0.06,0,0,0,0],[0.06,1,0,0,0],[0.13,0,0,0,0],[0.13,1,0,0,0],[0.19,0,0,0,0],[0.19,1,0,0,0],[0.25,0,0,0,0],[0.25,1,0,0,0],[0.31,0,0,0,0],[0.31,1,0,0,0],[0.38,0,0,0,0],[0.38,1,0,0,0],[0.44,0,0,0,0],[0.44,1,0,0,0],[0.5,0,0,0,0],[0.5,1,0,0,0],[0.56,0,0,0,0],[0.56,1,0,0,0],[0.63,0,0,0,0],[0.63,1,0,0,0],[0.69,0,0,0,0],[0.69,1,0,0,0],[0.75,0,0,0,0],[0.75,1,0,0,0],[0.81,0,0,0,0],[0.81,1,0,0,0],[0.88,0,0,0,0],[0.88,1,0,0,0],[0.94,0,0,0,0],[0.94,1,0,0,0],[1,0,0,0,0],[1,0.25,0,0,0],[1,0.5,0,0,0],[1,0.75,0,0,0],[1,1,0,0,0]];" vertex="1" parent="1">
          <mxGeometry x="18" y="50" width="610" height="40" as="geometry" />
        </mxCell>
        <mxCell id="65jc5dQRBd3O6GIBtG7y-2" value="MAC头" style="text;html=1;align=center;verticalAlign=middle;whiteSpace=wrap;rounded=0;" vertex="1" parent="1">
          <mxGeometry x="45" y="55" width="60" height="30" as="geometry" />
        </mxCell>
        <mxCell id="65jc5dQRBd3O6GIBtG7y-3" value="" style="endArrow=none;html=1;rounded=0;entryX=0.94;entryY=0;entryDx=0;entryDy=0;entryPerimeter=0;exitX=0.94;exitY=1;exitDx=0;exitDy=0;exitPerimeter=0;" edge="1" parent="1" source="65jc5dQRBd3O6GIBtG7y-1" target="65jc5dQRBd3O6GIBtG7y-1">
          <mxGeometry width="50" height="50" relative="1" as="geometry">
            <mxPoint x="318" y="230" as="sourcePoint" />
            <mxPoint x="368" y="180" as="targetPoint" />
          </mxGeometry>
        </mxCell>
        <mxCell id="65jc5dQRBd3O6GIBtG7y-4" value="CRC" style="text;html=1;align=center;verticalAlign=middle;whiteSpace=wrap;rounded=0;" vertex="1" parent="1">
          <mxGeometry x="590" y="55" width="40" height="30" as="geometry" />
        </mxCell>
        <mxCell id="65jc5dQRBd3O6GIBtG7y-5" value="" style="endArrow=none;html=1;rounded=0;entryX=0.19;entryY=0;entryDx=0;entryDy=0;entryPerimeter=0;exitX=0.19;exitY=1;exitDx=0;exitDy=0;exitPerimeter=0;" edge="1" parent="1" source="65jc5dQRBd3O6GIBtG7y-1" target="65jc5dQRBd3O6GIBtG7y-1">
          <mxGeometry width="50" height="50" relative="1" as="geometry">
            <mxPoint x="318" y="230" as="sourcePoint" />
            <mxPoint x="368" y="180" as="targetPoint" />
          </mxGeometry>
        </mxCell>
        <mxCell id="65jc5dQRBd3O6GIBtG7y-6" value="" style="endArrow=none;html=1;rounded=0;entryX=0.38;entryY=0;entryDx=0;entryDy=0;entryPerimeter=0;exitX=0.38;exitY=1;exitDx=0;exitDy=0;exitPerimeter=0;" edge="1" parent="1" source="65jc5dQRBd3O6GIBtG7y-1" target="65jc5dQRBd3O6GIBtG7y-1">
          <mxGeometry width="50" height="50" relative="1" as="geometry">
            <mxPoint x="318" y="230" as="sourcePoint" />
            <mxPoint x="368" y="180" as="targetPoint" />
          </mxGeometry>
        </mxCell>
        <mxCell id="65jc5dQRBd3O6GIBtG7y-7" value="IP头" style="text;html=1;align=center;verticalAlign=middle;whiteSpace=wrap;rounded=0;" vertex="1" parent="1">
          <mxGeometry x="161" y="56" width="60" height="30" as="geometry" />
        </mxCell>
        <mxCell id="65jc5dQRBd3O6GIBtG7y-9" value="" style="endArrow=none;html=1;rounded=0;entryX=0.5;entryY=0;entryDx=0;entryDy=0;entryPerimeter=0;exitX=0.5;exitY=1;exitDx=0;exitDy=0;exitPerimeter=0;" edge="1" parent="1" source="65jc5dQRBd3O6GIBtG7y-1" target="65jc5dQRBd3O6GIBtG7y-1">
          <mxGeometry width="50" height="50" relative="1" as="geometry">
            <mxPoint x="400" y="280" as="sourcePoint" />
            <mxPoint x="450" y="230" as="targetPoint" />
          </mxGeometry>
        </mxCell>
        <mxCell id="65jc5dQRBd3O6GIBtG7y-10" value="TCP头" style="text;html=1;align=center;verticalAlign=middle;whiteSpace=wrap;rounded=0;" vertex="1" parent="1">
          <mxGeometry x="260" y="55" width="60" height="30" as="geometry" />
        </mxCell>
        <mxCell id="zRfPieL8wmTyY9ZyIWt0-5" style="rounded=0;orthogonalLoop=1;jettySize=auto;html=1;exitX=1;exitY=1;exitDx=0;exitDy=0;" edge="1" parent="1" source="zRfPieL8wmTyY9ZyIWt0-1">
          <mxGeometry relative="1" as="geometry">
            <mxPoint x="840" y="160" as="targetPoint" />
          </mxGeometry>
        </mxCell>
        <mxCell id="zRfPieL8wmTyY9ZyIWt0-1" value="" style="rounded=0;whiteSpace=wrap;html=1;fillColor=#d5e8d4;strokeColor=#82b366;" vertex="1" parent="1">
          <mxGeometry x="322" y="50" width="270" height="40" as="geometry" />
        </mxCell>
        <mxCell id="zRfPieL8wmTyY9ZyIWt0-2" value="" style="endArrow=classic;html=1;rounded=0;exitX=0;exitY=1;exitDx=0;exitDy=0;" edge="1" parent="1" source="zRfPieL8wmTyY9ZyIWt0-1">
          <mxGeometry width="50" height="50" relative="1" as="geometry">
            <mxPoint x="400" y="280" as="sourcePoint" />
            <mxPoint x="150" y="160" as="targetPoint" />
          </mxGeometry>
        </mxCell>
        <mxCell id="zRfPieL8wmTyY9ZyIWt0-6" value="(一个HTTP请求内部可能会被拆成多个部分, 用多个数据包发送)" style="text;html=1;align=center;verticalAlign=middle;whiteSpace=wrap;rounded=0;fontStyle=2;fontColor=#9E9E9E;" vertex="1" parent="1">
          <mxGeometry x="290" y="110" width="350.5" height="30" as="geometry" />
        </mxCell>
        <mxCell id="zRfPieL8wmTyY9ZyIWt0-7" value="" style="rounded=0;whiteSpace=wrap;html=1;points=[[0,0,0,0,0],[0,0.25,0,0,0],[0,0.5,0,0,0],[0,0.75,0,0,0],[0,1,0,0,0],[0.06,0,0,0,0],[0.06,1,0,0,0],[0.13,0,0,0,0],[0.13,1,0,0,0],[0.19,0,0,0,0],[0.19,1,0,0,0],[0.25,0,0,0,0],[0.25,1,0,0,0],[0.31,0,0,0,0],[0.31,1,0,0,0],[0.38,0,0,0,0],[0.38,1,0,0,0],[0.44,0,0,0,0],[0.44,1,0,0,0],[0.5,0,0,0,0],[0.5,1,0,0,0],[0.56,0,0,0,0],[0.56,1,0,0,0],[0.63,0,0,0,0],[0.63,1,0,0,0],[0.69,0,0,0,0],[0.69,1,0,0,0],[0.75,0,0,0,0],[0.75,1,0,0,0],[0.81,0,0,0,0],[0.81,1,0,0,0],[0.88,0,0,0,0],[0.88,1,0,0,0],[0.94,0,0,0,0],[0.94,1,0,0,0],[1,0,0,0,0],[1,0.25,0,0,0],[1,0.5,0,0,0],[1,0.75,0,0,0],[1,1,0,0,0]];" vertex="1" parent="1">
          <mxGeometry x="150" y="183" width="690" height="40" as="geometry" />
        </mxCell>
        <mxCell id="zRfPieL8wmTyY9ZyIWt0-8" value="方法" style="text;html=1;align=center;verticalAlign=middle;whiteSpace=wrap;rounded=0;" vertex="1" parent="1">
          <mxGeometry x="200" y="188" width="60" height="30" as="geometry" />
        </mxCell>
        <mxCell id="zRfPieL8wmTyY9ZyIWt0-9" value="空" style="text;html=1;align=center;verticalAlign=middle;whiteSpace=wrap;rounded=0;" vertex="1" parent="1">
          <mxGeometry x="327" y="188" width="30" height="30" as="geometry" />
        </mxCell>
        <mxCell id="zRfPieL8wmTyY9ZyIWt0-10" value="URL" style="text;html=1;align=center;verticalAlign=middle;whiteSpace=wrap;rounded=0;" vertex="1" parent="1">
          <mxGeometry x="395" y="188" width="60" height="30" as="geometry" />
        </mxCell>
        <mxCell id="zRfPieL8wmTyY9ZyIWt0-11" value="空" style="text;html=1;align=center;verticalAlign=middle;whiteSpace=wrap;rounded=0;" vertex="1" parent="1">
          <mxGeometry x="500" y="188" width="30" height="30" as="geometry" />
        </mxCell>
        <mxCell id="zRfPieL8wmTyY9ZyIWt0-12" value="版本" style="text;html=1;align=center;verticalAlign=middle;whiteSpace=wrap;rounded=0;" vertex="1" parent="1">
          <mxGeometry x="630" y="188" width="60" height="30" as="geometry" />
        </mxCell>
        <mxCell id="zRfPieL8wmTyY9ZyIWt0-13" value="" style="endArrow=none;html=1;rounded=0;entryX=0.94;entryY=0;entryDx=0;entryDy=0;entryPerimeter=0;exitX=0.94;exitY=1;exitDx=0;exitDy=0;exitPerimeter=0;" edge="1" parent="1" source="zRfPieL8wmTyY9ZyIWt0-7" target="zRfPieL8wmTyY9ZyIWt0-7">
          <mxGeometry width="50" height="50" relative="1" as="geometry">
            <mxPoint x="510" y="343" as="sourcePoint" />
            <mxPoint x="560" y="293" as="targetPoint" />
          </mxGeometry>
        </mxCell>
        <mxCell id="zRfPieL8wmTyY9ZyIWt0-14" value="\n" style="text;html=1;align=center;verticalAlign=middle;whiteSpace=wrap;rounded=0;" vertex="1" parent="1">
          <mxGeometry x="810" y="188" width="20" height="30" as="geometry" />
        </mxCell>
        <mxCell id="zRfPieL8wmTyY9ZyIWt0-15" value="" style="endArrow=none;html=1;rounded=0;entryX=0.88;entryY=0;entryDx=0;entryDy=0;entryPerimeter=0;exitX=0.88;exitY=1;exitDx=0;exitDy=0;exitPerimeter=0;" edge="1" parent="1" source="zRfPieL8wmTyY9ZyIWt0-7" target="zRfPieL8wmTyY9ZyIWt0-7">
          <mxGeometry width="50" height="50" relative="1" as="geometry">
            <mxPoint x="510" y="343" as="sourcePoint" />
            <mxPoint x="560" y="293" as="targetPoint" />
          </mxGeometry>
        </mxCell>
        <mxCell id="zRfPieL8wmTyY9ZyIWt0-16" value="\r" style="text;html=1;align=center;verticalAlign=middle;whiteSpace=wrap;rounded=0;" vertex="1" parent="1">
          <mxGeometry x="770" y="188" width="20" height="30" as="geometry" />
        </mxCell>
        <mxCell id="zRfPieL8wmTyY9ZyIWt0-17" value="" style="endArrow=none;html=1;rounded=0;entryX=0.56;entryY=0;entryDx=0;entryDy=0;entryPerimeter=0;exitX=0.56;exitY=1;exitDx=0;exitDy=0;exitPerimeter=0;" edge="1" parent="1" source="zRfPieL8wmTyY9ZyIWt0-7" target="zRfPieL8wmTyY9ZyIWt0-7">
          <mxGeometry width="50" height="50" relative="1" as="geometry">
            <mxPoint x="510" y="343" as="sourcePoint" />
            <mxPoint x="560" y="293" as="targetPoint" />
          </mxGeometry>
        </mxCell>
        <mxCell id="zRfPieL8wmTyY9ZyIWt0-18" value="" style="endArrow=none;html=1;rounded=0;entryX=0.5;entryY=0;entryDx=0;entryDy=0;entryPerimeter=0;exitX=0.5;exitY=1;exitDx=0;exitDy=0;exitPerimeter=0;" edge="1" parent="1" source="zRfPieL8wmTyY9ZyIWt0-7" target="zRfPieL8wmTyY9ZyIWt0-7">
          <mxGeometry width="50" height="50" relative="1" as="geometry">
            <mxPoint x="510" y="343" as="sourcePoint" />
            <mxPoint x="560" y="293" as="targetPoint" />
          </mxGeometry>
        </mxCell>
        <mxCell id="zRfPieL8wmTyY9ZyIWt0-19" value="" style="endArrow=none;html=1;rounded=0;entryX=0.31;entryY=0;entryDx=0;entryDy=0;entryPerimeter=0;exitX=0.31;exitY=1;exitDx=0;exitDy=0;exitPerimeter=0;" edge="1" parent="1" source="zRfPieL8wmTyY9ZyIWt0-7" target="zRfPieL8wmTyY9ZyIWt0-7">
          <mxGeometry width="50" height="50" relative="1" as="geometry">
            <mxPoint x="510" y="343" as="sourcePoint" />
            <mxPoint x="560" y="293" as="targetPoint" />
          </mxGeometry>
        </mxCell>
        <mxCell id="zRfPieL8wmTyY9ZyIWt0-20" value="" style="endArrow=none;html=1;rounded=0;entryX=0.25;entryY=0;entryDx=0;entryDy=0;entryPerimeter=0;exitX=0.25;exitY=1;exitDx=0;exitDy=0;exitPerimeter=0;" edge="1" parent="1" source="zRfPieL8wmTyY9ZyIWt0-7" target="zRfPieL8wmTyY9ZyIWt0-7">
          <mxGeometry width="50" height="50" relative="1" as="geometry">
            <mxPoint x="510" y="343" as="sourcePoint" />
            <mxPoint x="560" y="293" as="targetPoint" />
          </mxGeometry>
        </mxCell>
        <mxCell id="zRfPieL8wmTyY9ZyIWt0-21" value="请求行:" style="text;html=1;align=center;verticalAlign=middle;whiteSpace=wrap;rounded=0;fontStyle=1" vertex="1" parent="1">
          <mxGeometry x="60" y="188" width="60" height="30" as="geometry" />
        </mxCell>
        <mxCell id="zRfPieL8wmTyY9ZyIWt0-22" value="" style="rounded=0;whiteSpace=wrap;html=1;points=[[0,0,0,0,0],[0,0.25,0,0,0],[0,0.5,0,0,0],[0,0.75,0,0,0],[0,1,0,0,0],[0.06,0,0,0,0],[0.06,1,0,0,0],[0.13,0,0,0,0],[0.13,1,0,0,0],[0.19,0,0,0,0],[0.19,1,0,0,0],[0.25,0,0,0,0],[0.25,1,0,0,0],[0.31,0,0,0,0],[0.31,1,0,0,0],[0.38,0,0,0,0],[0.38,1,0,0,0],[0.44,0,0,0,0],[0.44,1,0,0,0],[0.5,0,0,0,0],[0.5,1,0,0,0],[0.56,0,0,0,0],[0.56,1,0,0,0],[0.63,0,0,0,0],[0.63,1,0,0,0],[0.69,0,0,0,0],[0.69,1,0,0,0],[0.75,0,0,0,0],[0.75,1,0,0,0],[0.81,0,0,0,0],[0.81,1,0,0,0],[0.88,0,0,0,0],[0.88,1,0,0,0],[0.94,0,0,0,0],[0.94,1,0,0,0],[1,0,0,0,0],[1,0.25,0,0,0],[1,0.5,0,0,0],[1,0.75,0,0,0],[1,1,0,0,0]];" vertex="1" parent="1">
          <mxGeometry x="150" y="243" width="600" height="40" as="geometry" />
        </mxCell>
        <mxCell id="zRfPieL8wmTyY9ZyIWt0-23" value="" style="endArrow=none;html=1;rounded=0;entryX=0.94;entryY=0;entryDx=0;entryDy=0;entryPerimeter=0;exitX=0.94;exitY=1;exitDx=0;exitDy=0;exitPerimeter=0;" edge="1" parent="1" source="zRfPieL8wmTyY9ZyIWt0-22" target="zRfPieL8wmTyY9ZyIWt0-22">
          <mxGeometry width="50" height="50" relative="1" as="geometry">
            <mxPoint x="440" y="353" as="sourcePoint" />
            <mxPoint x="490" y="303" as="targetPoint" />
          </mxGeometry>
        </mxCell>
        <mxCell id="zRfPieL8wmTyY9ZyIWt0-24" value="\n" style="text;html=1;align=center;verticalAlign=middle;whiteSpace=wrap;rounded=0;" vertex="1" parent="1">
          <mxGeometry x="720" y="248" width="20" height="30" as="geometry" />
        </mxCell>
        <mxCell id="zRfPieL8wmTyY9ZyIWt0-25" value="" style="endArrow=none;html=1;rounded=0;entryX=0.88;entryY=0;entryDx=0;entryDy=0;entryPerimeter=0;exitX=0.88;exitY=1;exitDx=0;exitDy=0;exitPerimeter=0;" edge="1" parent="1" source="zRfPieL8wmTyY9ZyIWt0-22" target="zRfPieL8wmTyY9ZyIWt0-22">
          <mxGeometry width="50" height="50" relative="1" as="geometry">
            <mxPoint x="440" y="353" as="sourcePoint" />
            <mxPoint x="490" y="303" as="targetPoint" />
          </mxGeometry>
        </mxCell>
        <mxCell id="zRfPieL8wmTyY9ZyIWt0-26" value="\r" style="text;html=1;align=center;verticalAlign=middle;whiteSpace=wrap;rounded=0;" vertex="1" parent="1">
          <mxGeometry x="686" y="248" width="20" height="30" as="geometry" />
        </mxCell>
        <mxCell id="zRfPieL8wmTyY9ZyIWt0-27" value="" style="endArrow=none;html=1;rounded=0;entryX=0.38;entryY=0;entryDx=0;entryDy=0;entryPerimeter=0;exitX=0.38;exitY=1;exitDx=0;exitDy=0;exitPerimeter=0;" edge="1" parent="1" source="zRfPieL8wmTyY9ZyIWt0-22" target="zRfPieL8wmTyY9ZyIWt0-22">
          <mxGeometry width="50" height="50" relative="1" as="geometry">
            <mxPoint x="440" y="353" as="sourcePoint" />
            <mxPoint x="490" y="303" as="targetPoint" />
          </mxGeometry>
        </mxCell>
        <mxCell id="zRfPieL8wmTyY9ZyIWt0-28" value="" style="endArrow=none;html=1;rounded=0;entryX=0.44;entryY=0;entryDx=0;entryDy=0;entryPerimeter=0;exitX=0.44;exitY=1;exitDx=0;exitDy=0;exitPerimeter=0;" edge="1" parent="1" source="zRfPieL8wmTyY9ZyIWt0-22" target="zRfPieL8wmTyY9ZyIWt0-22">
          <mxGeometry width="50" height="50" relative="1" as="geometry">
            <mxPoint x="440" y="353" as="sourcePoint" />
            <mxPoint x="490" y="303" as="targetPoint" />
          </mxGeometry>
        </mxCell>
        <mxCell id="zRfPieL8wmTyY9ZyIWt0-29" value="空" style="text;html=1;align=center;verticalAlign=middle;whiteSpace=wrap;rounded=0;" vertex="1" parent="1">
          <mxGeometry x="381" y="248" width="30" height="30" as="geometry" />
        </mxCell>
        <mxCell id="zRfPieL8wmTyY9ZyIWt0-30" value="字段名" style="text;html=1;align=center;verticalAlign=middle;whiteSpace=wrap;rounded=0;" vertex="1" parent="1">
          <mxGeometry x="230" y="248" width="60" height="30" as="geometry" />
        </mxCell>
        <mxCell id="zRfPieL8wmTyY9ZyIWt0-31" value="字段值" style="text;html=1;align=center;verticalAlign=middle;whiteSpace=wrap;rounded=0;" vertex="1" parent="1">
          <mxGeometry x="510" y="248" width="60" height="30" as="geometry" />
        </mxCell>
        <mxCell id="zRfPieL8wmTyY9ZyIWt0-32" value="请求头:" style="text;html=1;align=center;verticalAlign=middle;whiteSpace=wrap;rounded=0;fontStyle=1" vertex="1" parent="1">
          <mxGeometry x="50" y="289" width="80" height="30" as="geometry" />
        </mxCell>
        <mxCell id="zRfPieL8wmTyY9ZyIWt0-33" value="... ..." style="text;html=1;align=center;verticalAlign=middle;whiteSpace=wrap;rounded=0;fontStyle=1" vertex="1" parent="1">
          <mxGeometry x="170" y="289" width="60" height="30" as="geometry" />
        </mxCell>
        <mxCell id="zRfPieL8wmTyY9ZyIWt0-34" value="" style="rounded=0;whiteSpace=wrap;html=1;points=[[0,0,0,0,0],[0,0.25,0,0,0],[0,0.5,0,0,0],[0,0.75,0,0,0],[0,1,0,0,0],[0.06,0,0,0,0],[0.06,1,0,0,0],[0.13,0,0,0,0],[0.13,1,0,0,0],[0.19,0,0,0,0],[0.19,1,0,0,0],[0.25,0,0,0,0],[0.25,1,0,0,0],[0.31,0,0,0,0],[0.31,1,0,0,0],[0.38,0,0,0,0],[0.38,1,0,0,0],[0.44,0,0,0,0],[0.44,1,0,0,0],[0.5,0,0,0,0],[0.5,1,0,0,0],[0.56,0,0,0,0],[0.56,1,0,0,0],[0.63,0,0,0,0],[0.63,1,0,0,0],[0.69,0,0,0,0],[0.69,1,0,0,0],[0.75,0,0,0,0],[0.75,1,0,0,0],[0.81,0,0,0,0],[0.81,1,0,0,0],[0.88,0,0,0,0],[0.88,1,0,0,0],[0.94,0,0,0,0],[0.94,1,0,0,0],[1,0,0,0,0],[1,0.25,0,0,0],[1,0.5,0,0,0],[1,0.75,0,0,0],[1,1,0,0,0]];" vertex="1" parent="1">
          <mxGeometry x="150" y="339" width="600" height="40" as="geometry" />
        </mxCell>
        <mxCell id="zRfPieL8wmTyY9ZyIWt0-35" value="" style="endArrow=none;html=1;rounded=0;entryX=0.94;entryY=0;entryDx=0;entryDy=0;entryPerimeter=0;exitX=0.94;exitY=1;exitDx=0;exitDy=0;exitPerimeter=0;" edge="1" parent="1" source="zRfPieL8wmTyY9ZyIWt0-34" target="zRfPieL8wmTyY9ZyIWt0-34">
          <mxGeometry width="50" height="50" relative="1" as="geometry">
            <mxPoint x="440" y="449" as="sourcePoint" />
            <mxPoint x="490" y="399" as="targetPoint" />
          </mxGeometry>
        </mxCell>
        <mxCell id="zRfPieL8wmTyY9ZyIWt0-36" value="\n" style="text;html=1;align=center;verticalAlign=middle;whiteSpace=wrap;rounded=0;" vertex="1" parent="1">
          <mxGeometry x="720" y="344" width="20" height="30" as="geometry" />
        </mxCell>
        <mxCell id="zRfPieL8wmTyY9ZyIWt0-37" value="" style="endArrow=none;html=1;rounded=0;entryX=0.88;entryY=0;entryDx=0;entryDy=0;entryPerimeter=0;exitX=0.88;exitY=1;exitDx=0;exitDy=0;exitPerimeter=0;" edge="1" parent="1" source="zRfPieL8wmTyY9ZyIWt0-34" target="zRfPieL8wmTyY9ZyIWt0-34">
          <mxGeometry width="50" height="50" relative="1" as="geometry">
            <mxPoint x="440" y="449" as="sourcePoint" />
            <mxPoint x="490" y="399" as="targetPoint" />
          </mxGeometry>
        </mxCell>
        <mxCell id="zRfPieL8wmTyY9ZyIWt0-38" value="\r" style="text;html=1;align=center;verticalAlign=middle;whiteSpace=wrap;rounded=0;" vertex="1" parent="1">
          <mxGeometry x="686" y="344" width="20" height="30" as="geometry" />
        </mxCell>
        <mxCell id="zRfPieL8wmTyY9ZyIWt0-39" value="" style="endArrow=none;html=1;rounded=0;entryX=0.38;entryY=0;entryDx=0;entryDy=0;entryPerimeter=0;exitX=0.38;exitY=1;exitDx=0;exitDy=0;exitPerimeter=0;" edge="1" parent="1" source="zRfPieL8wmTyY9ZyIWt0-34" target="zRfPieL8wmTyY9ZyIWt0-34">
          <mxGeometry width="50" height="50" relative="1" as="geometry">
            <mxPoint x="440" y="449" as="sourcePoint" />
            <mxPoint x="490" y="399" as="targetPoint" />
          </mxGeometry>
        </mxCell>
        <mxCell id="zRfPieL8wmTyY9ZyIWt0-40" value="" style="endArrow=none;html=1;rounded=0;entryX=0.44;entryY=0;entryDx=0;entryDy=0;entryPerimeter=0;exitX=0.44;exitY=1;exitDx=0;exitDy=0;exitPerimeter=0;" edge="1" parent="1" source="zRfPieL8wmTyY9ZyIWt0-34" target="zRfPieL8wmTyY9ZyIWt0-34">
          <mxGeometry width="50" height="50" relative="1" as="geometry">
            <mxPoint x="440" y="449" as="sourcePoint" />
            <mxPoint x="490" y="399" as="targetPoint" />
          </mxGeometry>
        </mxCell>
        <mxCell id="zRfPieL8wmTyY9ZyIWt0-41" value="空" style="text;html=1;align=center;verticalAlign=middle;whiteSpace=wrap;rounded=0;" vertex="1" parent="1">
          <mxGeometry x="381" y="344" width="30" height="30" as="geometry" />
        </mxCell>
        <mxCell id="zRfPieL8wmTyY9ZyIWt0-42" value="字段名" style="text;html=1;align=center;verticalAlign=middle;whiteSpace=wrap;rounded=0;" vertex="1" parent="1">
          <mxGeometry x="230" y="344" width="60" height="30" as="geometry" />
        </mxCell>
        <mxCell id="zRfPieL8wmTyY9ZyIWt0-43" value="字段值" style="text;html=1;align=center;verticalAlign=middle;whiteSpace=wrap;rounded=0;" vertex="1" parent="1">
          <mxGeometry x="510" y="344" width="60" height="30" as="geometry" />
        </mxCell>
        <mxCell id="zRfPieL8wmTyY9ZyIWt0-44" value="" style="shape=curlyBracket;whiteSpace=wrap;html=1;rounded=1;labelPosition=left;verticalLabelPosition=middle;align=right;verticalAlign=middle;" vertex="1" parent="1">
          <mxGeometry x="120" y="248" width="20" height="120" as="geometry" />
        </mxCell>
        <mxCell id="zRfPieL8wmTyY9ZyIWt0-45" value="" style="rounded=0;whiteSpace=wrap;html=1;" vertex="1" parent="1">
          <mxGeometry x="150" y="403" width="80" height="40" as="geometry" />
        </mxCell>
        <mxCell id="zRfPieL8wmTyY9ZyIWt0-46" value="" style="endArrow=none;html=1;rounded=0;entryX=0.5;entryY=0;entryDx=0;entryDy=0;exitX=0.5;exitY=1;exitDx=0;exitDy=0;" edge="1" parent="1" source="zRfPieL8wmTyY9ZyIWt0-45" target="zRfPieL8wmTyY9ZyIWt0-45">
          <mxGeometry width="50" height="50" relative="1" as="geometry">
            <mxPoint x="190" y="463" as="sourcePoint" />
            <mxPoint x="240" y="413" as="targetPoint" />
          </mxGeometry>
        </mxCell>
        <mxCell id="zRfPieL8wmTyY9ZyIWt0-47" value="\r" style="text;html=1;align=center;verticalAlign=middle;whiteSpace=wrap;rounded=0;" vertex="1" parent="1">
          <mxGeometry x="160" y="408" width="20" height="30" as="geometry" />
        </mxCell>
        <mxCell id="zRfPieL8wmTyY9ZyIWt0-48" value="\n" style="text;html=1;align=center;verticalAlign=middle;whiteSpace=wrap;rounded=0;" vertex="1" parent="1">
          <mxGeometry x="200" y="408" width="20" height="30" as="geometry" />
        </mxCell>
        <mxCell id="zRfPieL8wmTyY9ZyIWt0-49" value="" style="rounded=0;whiteSpace=wrap;html=1;" vertex="1" parent="1">
          <mxGeometry x="150" y="463" width="600" height="40" as="geometry" />
        </mxCell>
        <mxCell id="zRfPieL8wmTyY9ZyIWt0-50" value="请求体:" style="text;html=1;align=center;verticalAlign=middle;whiteSpace=wrap;rounded=0;fontStyle=1" vertex="1" parent="1">
          <mxGeometry x="55" y="468" width="70" height="30" as="geometry" />
        </mxCell>
      </root>
    </mxGraphModel>
  </diagram>
</mxfile>
